<svg width="164" height="164" viewBox="0 0 164 164" fill="none" xmlns="http://www.w3.org/2000/svg">
<circle cx="82" cy="82" r="81" fill="#86BA5B" stroke="white" stroke-width="2"/>
<path d="M34.4625 146.509C34.4625 146.509 36.3482 136.683 41.7244 129.012C47.1006 121.341 62.0787 105.702 62.0787 105.702" stroke="white" stroke-width="2" stroke-linecap="round"/>
<path d="M37.1512 137.662C37.1512 137.662 38.3746 134.199 42.3244 132.628C44.5119 131.758 49.0345 132.247 53.3865 129.639C57.7384 127.031 57.0864 125.943 62.4248 124.791" stroke="white" stroke-width="2" stroke-linecap="round"/>
<path d="M71.3855 120.623C67.1599 120.921 61.829 125.074 61.829 125.074C61.829 125.074 68.0383 134.653 76.8369 134.415C85.6355 134.176 85.6763 131.01 89.1985 130.704C92.7206 130.397 96.2156 132.202 96.2156 132.202C96.2156 132.202 91.7152 126.515 89.2665 125.428C86.8177 124.34 83.2865 125.35 80.4815 124.611C77.6765 123.871 75.6112 120.326 71.3855 120.623Z" stroke="white" stroke-width="2" stroke-linejoin="round"/>
<path d="M41.8032 95.5899C40.4732 89.5918 44.0725 83.3054 44.0725 83.3054C44.0725 83.3054 43.3414 85.4069 46.8049 89.6734C50.2685 93.9399 54.8411 93.9989 56.1849 98.9417C57.5288 103.884 53.5182 114.739 53.5182 114.739C53.5182 114.739 54.5554 111.586 53.2572 107.699C51.9589 103.813 43.1331 101.588 41.8032 95.5899Z" stroke="white" stroke-width="2" stroke-linejoin="round"/>
<path d="M61.3661 106.397C61.3661 106.397 75.5455 98.1359 86.0938 98.6237C96.6421 99.1115 99.7354 104.78 108.164 105.945C116.593 107.109 121.549 104.71 127.529 104.787C133.509 104.864 142.601 109.203 142.601 109.203" stroke="white" stroke-width="2" stroke-linecap="round" stroke-linejoin="round"/>
<path d="M61.3661 106.397C61.3661 106.397 64.2165 103.619 65.3443 98.0043C66.4722 92.3897 65.4804 87.4514 66.649 78.671C67.8177 69.8905 72.1114 64.3167 71.9002 53.4076C71.689 42.4984 68.573 38.5882 68.6682 31.2012C68.7635 23.8142 69.8822 18.9031 69.8822 18.9031" stroke="white" stroke-width="2" stroke-linecap="round" stroke-linejoin="round"/>
<path d="M89.7066 91.282C83.3522 92.9592 72.6905 101.265 72.6905 101.265C72.6905 101.265 75.5137 100.598 80.7539 103.48C85.994 106.362 89.7637 114.151 95.0265 115.274C100.289 116.398 100.668 114.292 106.274 116.123C111.879 117.954 112.181 121.828 122.026 122.307C131.871 122.786 142.952 109.208 142.952 109.208C142.952 109.208 131.914 92.1779 124.892 91.032C117.87 89.886 112.918 91.9331 107.29 91.8605C101.662 91.788 96.061 89.6048 89.7066 91.282Z" stroke="white" stroke-width="2" stroke-linejoin="round"/>
<path d="M60.0264 46.5699C58.5558 51.4765 54.6816 51.7783 54.8885 63.0393C55.0953 74.3002 59.0969 78.1661 61.6426 84.9392C64.0237 91.2745 65.7188 96.25 65.7188 96.25C65.7188 96.25 68.3126 86.0807 71.5465 80.8451C74.7804 75.6094 79.4257 70.0402 79.5118 63.3567C79.598 56.6732 78.6894 54.5021 78.2682 50.6751C77.9649 47.9197 77.989 45.0424 77.6871 41.1685C77.3852 37.2945 76.0328 33.0553 73.2684 29.1496C70.504 25.2439 69.8866 18.5514 69.8866 18.5514C69.8866 18.5514 63.0488 30.4251 61.9393 34.6327C60.8297 38.8402 61.4971 41.6634 60.0264 46.5699Z" stroke="white" stroke-width="2" stroke-linejoin="round"/>
</svg>
