<svg width="166" height="170" viewBox="0 0 166 170" fill="none" xmlns="http://www.w3.org/2000/svg">
<path d="M25.0345 0C24.645 3.89565 20.6519 22.887 22.1128 35.5478C23.5737 48.2087 27.4693 49.1826 31.365 57.9478C35.2606 66.713 34.7737 69.6348 39.1563 79.8609C43.5389 90.0869 67.8867 106.643 67.8867 106.643" stroke="#418E01" stroke-width="3" stroke-linecap="round"/>
<path d="M115.121 68.6609C115.121 68.6609 100.999 71.0957 93.695 70.6087C86.3907 70.1217 77.1385 66.2261 71.782 65.7391C66.4254 65.2522 62.0428 68.6609 53.7646 67.687C45.4863 66.713 31.8515 57.9478 31.8515 57.9478" stroke="#418E01" stroke-width="3" stroke-linecap="round"/>
<path d="M21.626 36.0348C21.626 36.0348 11.3999 47.2348 9.45206 57.4609C7.50424 67.687 11.3999 72.5565 11.8868 80.3478C12.3738 88.1391 9.93902 92.5217 10.426 99.3391C10.9129 106.157 16.7564 113.461 16.7564 113.461" stroke="#418E01" stroke-width="3" stroke-linecap="round"/>
<path d="M46.947 90.087C46.947 90.087 43.0514 112.974 44.9992 121.739C46.947 130.504 49.8688 131.965 53.2775 137.809C56.6861 143.652 56.1992 147.061 59.1209 152.904C62.0427 158.748 76.6514 167.026 76.6514 167.026" stroke="#418E01" stroke-width="3" stroke-linecap="round"/>
<path d="M163.33 117.357C163.33 117.357 152.617 119.304 146.287 118.817C139.956 118.33 131.191 112.974 121.939 112.974C112.687 112.974 107.33 119.791 95.6431 119.304C83.9562 118.817 67.3996 106.157 67.3996 106.157" stroke="#418E01" stroke-width="3" stroke-linecap="round"/>
<path d="M151.644 115.409C158.461 118.33 164.305 116.87 164.305 116.87C164.305 116.87 155.539 126.609 144.826 128.557C134.113 130.504 131.192 127.583 117.557 127.583C110.34 127.583 102.344 130.945 96.1308 130.504C87.8525 129.917 83.4699 126.122 79.0873 122.226C74.7047 118.33 65.9395 105.183 65.9395 105.183C65.9395 105.183 80.0612 110.052 90.2873 108.591C100.513 107.13 105.383 100.313 119.992 101.287C134.6 102.261 144.826 112.487 151.644 115.409Z" fill="#418E01" stroke="#418E01" stroke-width="3" stroke-linecap="round" stroke-linejoin="round"/>
<path d="M48.8955 109.565C45.9738 102.261 46.9477 90.087 46.9477 90.087C46.9477 90.087 43.0521 99.8261 40.6173 105.183C38.1825 110.539 32.339 112.974 32.826 123.687C33.3129 134.4 40.1303 138.783 43.539 144.626C46.9477 150.47 48.8955 156.313 56.6868 160.696C64.4781 165.078 77.626 168 77.626 168C77.626 168 67.8868 155.339 66.9129 147.548C65.939 139.757 66.426 134.887 63.0173 126.609C59.6086 118.33 51.8173 116.87 48.8955 109.565Z" fill="#418E01" stroke="#418E01" stroke-width="3" stroke-linecap="round" stroke-linejoin="round"/>
<path d="M16.7572 53.0783C17.2441 44.8 22.1137 36.2296 22.1137 35.0609C22.1137 35.0609 11.8876 40.9043 7.01802 48.6957C2.14846 56.487 1.6615 58.4348 2.14846 63.7913C2.63542 69.1478 5.0702 70.1217 5.55716 77.913C6.04411 85.7043 1.6615 89.113 4.58324 97.3913C7.50498 105.67 13.1861 109.89 17.2441 115.409C17.2441 115.409 15.2963 106.157 17.2441 97.3913C19.1919 88.6261 26.0093 84.2435 24.5485 74.0174C23.0876 63.7913 16.2702 61.3565 16.7572 53.0783Z" fill="#418E01" stroke="#418E01" stroke-width="3" stroke-linecap="round" stroke-linejoin="round"/>
<path d="M99.0529 63.3044C107.331 67.687 110.415 67.0377 115.609 68.6609C109.766 72.0696 104.896 77.4261 96.6181 79.3739C88.3398 81.3217 83.9572 75.4783 78.1137 75.9652C72.2702 76.4522 68.8615 80.8348 62.0442 80.3478C55.2268 79.8609 51.8181 77.4261 47.9224 73.0435C44.0268 68.6609 31.8529 57.9478 31.8529 57.9478C31.8529 57.9478 46.9485 64.7652 55.7137 62.3304C64.4789 59.8957 65.9398 52.1044 76.6529 52.1044C87.3659 52.1044 90.7746 58.9217 99.0529 63.3044Z" fill="#418E01" stroke="#418E01" stroke-width="3" stroke-linecap="round" stroke-linejoin="round"/>
</svg>
