<svg width="1920" height="1280" viewBox="0 0 1920 1280" fill="none" xmlns="http://www.w3.org/2000/svg">
<g clip-path="url(#clip0_74_294)">
<rect width="1920" height="1280" fill="white"/>
<rect x="-36.0225" y="-45" width="2047.38" height="1381.43" fill="#DDFFF1"/>
<path d="M129.646 238.597C75.1381 112.484 71.9424 -3.86768 71.9424 -3.86768H1335.2C1335.2 -3.86768 1354.12 11.654 1294.22 53.5624C1234.33 95.4708 1096.42 121.081 938.02 208.003C779.62 294.924 659.122 433.644 477.868 440.629C296.614 447.614 184.154 364.71 129.646 238.597Z" fill="#C8EFBB"/>
<path d="M229.554 755.916C72.7298 633.296 1.80469 538.614 1.80469 538.614V1296.85H655.895C655.895 1296.85 659.047 1259.59 722.88 1236.31C786.713 1213.03 800.898 1227.83 873.399 1201.39C945.901 1174.94 1009.73 1031.43 790.653 951.489C571.572 871.553 483.309 919.67 229.554 755.916Z" fill="#C8EFBB"/>
<path d="M1673.29 293.372C1817.5 281.731 1978.26 387.278 1978.26 387.278V1185.87C1978.26 1185.87 1726.09 1212.25 1617.33 1118.35C1508.58 1024.44 1463.66 772.214 1463.66 634.072C1463.66 495.929 1529.07 305.013 1673.29 293.372Z" fill="#C8EFBB"/>
</g>
<defs>
<clipPath id="clip0_74_294">
<rect width="1920" height="1280" fill="white"/>
</clipPath>
</defs>
</svg>
