<svg width="635" height="541" viewBox="0 0 635 541" fill="none" xmlns="http://www.w3.org/2000/svg">
<g clip-path="url(#clip0_58_44)">
<path d="M104.271 304.5C78.9079 258 24.7715 291.5 -7.72889 236.5C-53.2286 176 -55.2284 482.5 -23.7284 485C15.2714 485 2.77148 451 54.7711 418.5C112.771 378.5 129.635 351 104.271 304.5Z" fill="#B4C29F"/>
<path d="M-10.7287 259.5C-10.7287 259.5 -13.2288 292 19.7713 315C52.7714 338 124.271 325.5 136.271 365.5C151.434 416.043 63.2713 501 -10.7287 511" stroke="#3C5A0E" stroke-width="2"/>
<path d="M59.2884 -5C58.5948 1.93658 51.4848 35.7524 54.086 58.2963C56.6872 80.8402 63.6238 82.5744 70.5604 98.1817C77.497 113.789 76.6299 118.991 84.4336 137.2C92.2372 155.408 135.591 184.889 135.591 184.889" stroke="#3E7A27" stroke-linecap="round"/>
<path d="M219.697 117.257C219.697 117.257 194.552 121.593 181.546 120.726C168.54 119.858 152.065 112.922 142.527 112.055C132.99 111.188 125.186 117.257 110.446 115.523C95.7055 113.789 71.4275 98.1816 71.4275 98.1816" stroke="#3E7A27" stroke-linecap="round"/>
<path d="M53.2189 59.1633C53.2189 59.1633 35.0104 79.106 31.5421 97.3145C28.0738 115.523 35.0104 124.194 35.8775 138.067C36.7446 151.94 32.4092 159.744 33.2763 171.883C34.1433 184.022 44.5482 197.028 44.5482 197.028" stroke="#3E7A27" stroke-linecap="round"/>
<path d="M98.3067 155.408C98.3067 155.408 91.3701 196.161 94.8384 211.768C98.3067 227.375 103.509 229.977 109.579 240.382C115.648 250.786 114.781 256.856 119.984 267.261C125.186 277.666 151.198 292.406 151.198 292.406" stroke="#3E7A27" stroke-linecap="round"/>
<path d="M305.537 203.965C305.537 203.965 286.462 207.433 275.19 206.566C263.918 205.699 248.31 196.161 231.836 196.161C215.362 196.161 205.824 208.3 185.014 207.433C164.204 206.566 134.724 184.022 134.724 184.022" stroke="#3E7A27" stroke-linecap="round"/>
<path d="M284.727 200.496C296.866 205.699 307.271 203.097 307.271 203.097C307.271 203.097 291.664 220.439 272.588 223.907C253.513 227.376 248.31 222.173 224.032 222.173C211.182 222.173 196.945 228.161 185.881 227.376C171.141 226.329 163.337 219.572 155.534 212.635C147.73 205.699 132.123 182.288 132.123 182.288C132.123 182.288 157.268 190.958 175.476 188.357C193.685 185.756 202.355 173.617 228.368 175.351C254.38 177.085 272.588 195.294 284.727 200.496Z" stroke="#3E7A27" stroke-linecap="round" stroke-linejoin="round"/>
<path d="M101.775 190.091C96.5726 177.085 98.3067 155.408 98.3067 155.408C98.3067 155.408 91.3702 172.75 87.0348 182.288C82.6994 191.826 72.2945 196.161 73.1616 215.236C74.0287 234.312 86.1677 242.116 92.2372 252.521C98.3067 262.925 101.775 273.33 115.648 281.134C129.521 288.938 152.932 294.14 152.932 294.14C152.932 294.14 135.591 271.596 133.857 257.723C132.123 243.85 132.99 235.179 126.92 220.439C120.851 205.699 106.977 203.097 101.775 190.091Z" stroke="#3E7A27" stroke-linecap="round" stroke-linejoin="round"/>
<path d="M44.5483 89.5109C45.4154 74.7707 54.0861 59.5102 54.0861 57.4292C54.0861 57.4292 35.8776 67.8341 27.2068 81.7072C18.5361 95.5804 17.669 99.0487 18.5361 108.587C19.4032 118.124 23.7385 119.858 24.6056 133.732C25.4727 147.605 17.669 153.674 22.8715 168.415C28.0739 183.155 38.1897 190.669 45.4154 200.496C45.4154 200.496 41.9471 184.022 45.4154 168.415C48.8836 152.807 61.0227 145.004 58.4214 126.795C55.8202 108.587 43.6812 104.251 44.5483 89.5109Z" stroke="#3E7A27" stroke-linecap="round" stroke-linejoin="round"/>
<path d="M191.084 107.72C205.824 115.523 211.315 114.367 220.564 117.257C210.159 123.327 201.488 132.865 186.748 136.333C172.008 139.801 164.204 129.396 153.799 130.263C143.395 131.131 137.325 138.934 125.186 138.067C113.047 137.2 106.977 132.865 100.041 125.061C93.1043 117.257 71.4275 98.1817 71.4275 98.1817C71.4275 98.1817 98.3067 110.321 113.914 105.985C129.521 101.65 132.123 87.7769 151.198 87.7769C170.274 87.7769 176.343 99.9159 191.084 107.72Z" stroke="#3E7A27" stroke-linecap="round" stroke-linejoin="round"/>
<path d="M250.271 33C246.271 8.5 213.271 -1 213.271 -1H555.771C555.771 -1 535.271 2.5 533.771 25.5C532.271 48.5 583.271 111 507.271 106C431.271 101 433.771 135 400.771 132C367.771 129 371.771 90.3404 337.771 86C303.771 81.6596 228.394 118.5 217.771 91.5C207.149 64.5 254.271 57.5 250.271 33Z" fill="#DAD869"/>
<path d="M280.686 -17C280.686 -17 343.427 -1.16142 303.884 16.3156C255.905 33.7927 241.143 100.424 287.013 126.093C332.882 151.763 379.28 86.77 388.77 64.9237C407.988 20.6849 459.126 50.8168 496.328 64.9237C555.379 87.3162 585.643 62.7391 591.232 33.7927C596.821 4.84632 578.051 -17 578.051 -17" stroke="#727A53" stroke-width="3"/>
</g>
<defs>
<clipPath id="clip0_58_44">
<rect width="635" height="541" fill="white"/>
</clipPath>
</defs>
</svg>
