<svg width="1146" height="89" viewBox="0 0 1146 89" fill="none" xmlns="http://www.w3.org/2000/svg">
<path d="M73 29C15 1 0 -46 0 -46H1146C1146 -46 1131 1 1073 29C1015 57 955 65 923 70C891 75 738 87 573 87C408 87 256 75.0769 223 70C190 64.9231 131 57 73 29Z" fill="#B9CC5D"/>
<path d="M558.374 86.5264C558.232 85.1103 556.781 78.2068 557.312 73.6044C557.843 69.0021 559.259 68.648 560.675 65.4618C562.091 62.2755 561.914 61.2134 563.507 57.4962C565.1 53.7789 573.951 47.7604 573.951 47.7604" stroke="#F7F7F7" stroke-width="3" stroke-linecap="round"/>
<path d="M591.122 61.5675C591.122 61.5675 585.989 60.6824 583.333 60.8594C580.678 61.0364 577.315 62.4525 575.368 62.6295C573.421 62.8066 571.828 61.5675 568.818 61.9215C565.809 62.2755 560.853 65.4618 560.853 65.4618" stroke="#F7F7F7" stroke-width="3" stroke-linecap="round"/>
<path d="M557.136 73.4274C557.136 73.4274 553.418 69.3561 552.71 65.6388C552.002 61.9215 553.418 60.1514 553.595 57.3191C553.772 54.4869 552.887 52.8938 553.064 50.4156C553.241 47.9374 555.366 45.2822 555.366 45.2822" stroke="#F7F7F7" stroke-width="3" stroke-linecap="round"/>
<path d="M566.34 53.7789C566.34 53.7789 564.924 45.4592 565.632 42.273C566.34 39.0867 567.402 38.5557 568.641 36.4315C569.88 34.3073 569.703 33.0682 570.765 30.9441C571.827 28.8199 577.138 25.8107 577.138 25.8107" stroke="#F7F7F7" stroke-width="3" stroke-linecap="round"/>
<path d="M608.646 43.8661C608.646 43.8661 604.752 43.158 602.451 43.335C600.15 43.5121 596.964 45.4592 593.6 45.4592C590.237 45.4592 588.29 42.981 584.042 43.158C579.793 43.335 573.775 47.9374 573.775 47.9374" stroke="#F7F7F7" stroke-width="3" stroke-linecap="round"/>
<path d="M604.399 44.5741C606.877 43.5121 609.001 44.0431 609.001 44.0431C609.001 44.0431 605.815 40.5028 601.92 39.7948C598.026 39.0867 596.964 40.1488 592.008 40.1488C589.384 40.1488 586.478 38.9264 584.219 39.0867C581.21 39.3003 579.617 40.6798 578.024 42.0959C576.43 43.5121 573.244 48.2914 573.244 48.2914C573.244 48.2914 578.378 46.5213 582.095 47.0523C585.812 47.5834 587.582 50.0616 592.893 49.7075C598.203 49.3535 601.92 45.6362 604.399 44.5741Z" fill="#F7F7F7" stroke="#F7F7F7" stroke-width="3" stroke-linecap="round" stroke-linejoin="round"/>
<path d="M567.048 46.6983C565.986 49.3535 566.34 53.7789 566.34 53.7789C566.34 53.7789 564.924 50.2386 564.039 48.2914C563.154 46.3443 561.03 45.4592 561.207 41.5649C561.384 37.6706 563.862 36.0775 565.101 33.9533C566.34 31.8292 567.048 29.705 569.881 28.1119C572.713 26.5187 577.492 25.4567 577.492 25.4567C577.492 25.4567 573.952 30.059 573.598 32.8912C573.244 35.7235 573.421 37.4936 572.182 40.5028C570.943 43.5121 568.11 44.0431 567.048 46.6983Z" fill="#F7F7F7" stroke="#F7F7F7" stroke-width="3" stroke-linecap="round" stroke-linejoin="round"/>
<path d="M555.365 67.2319C555.542 70.2412 557.312 73.3566 557.312 73.7814C557.312 73.7814 553.595 71.6573 551.825 68.825C550.055 65.9928 549.878 65.2848 550.055 63.3376C550.232 61.3905 551.117 61.0364 551.294 58.2042C551.471 55.372 549.878 54.1329 550.94 51.1237C552.002 48.1144 554.067 46.5803 555.542 44.5741C555.542 44.5741 554.834 47.9374 555.542 51.1237C556.25 54.3099 558.729 55.903 558.198 59.6203C557.666 63.3376 555.188 64.2227 555.365 67.2319Z" fill="#F7F7F7" stroke="#F7F7F7" stroke-width="3" stroke-linecap="round" stroke-linejoin="round"/>
<path d="M585.28 63.5146C588.29 61.9215 589.411 62.1575 591.299 61.5675C589.175 60.3284 587.405 58.3812 584.395 57.6732C581.386 56.9651 579.793 59.0893 577.669 58.9123C575.545 58.7353 574.306 57.1422 571.827 57.3192C569.349 57.4962 568.11 58.3812 566.694 59.9744C565.278 61.5675 560.852 65.4618 560.852 65.4618C560.852 65.4618 566.34 62.9836 569.526 63.8687C572.712 64.7537 573.243 67.586 577.138 67.586C581.032 67.586 582.271 65.1078 585.28 63.5146Z" fill="#F7F7F7" stroke="#F7F7F7" stroke-width="3" stroke-linecap="round" stroke-linejoin="round"/>
</svg>
