<svg width="879" height="688" viewBox="0 0 879 688" fill="none" xmlns="http://www.w3.org/2000/svg">
<path d="M746.809 228.893L746.825 228.88L746.84 228.867L873.396 111.74C874.086 111.101 874.559 110.263 874.748 109.342L878.163 92.696C878.399 91.5452 878.175 90.3478 877.54 89.3595L825.691 8.65064C825.489 8.33619 825.249 8.04815 824.975 7.79314L818.994 2.21025L818.653 2.57578L818.994 2.21024C818.161 1.43253 817.063 1 815.923 1H754.232C753.688 1 753.147 1.09886 752.638 1.29178L555.86 75.829C555.459 75.9808 555.082 76.189 554.741 76.4473L512.66 108.252C512.392 108.455 512.097 108.618 511.783 108.736L423.641 141.913C423.404 142.002 423.174 142.111 422.955 142.24L311.248 207.568L311.227 207.58L311.208 207.594L218.708 274.094L218.708 274.094L141.708 329.594L141.707 329.595L14.5978 421.313C14.3061 421.523 14.0406 421.768 13.8072 422.042L14.1876 422.366L13.8072 422.042L2.15201 435.706C0.567299 437.564 0.753598 440.347 2.57181 441.977L13.8992 452.133L14.233 451.761L13.8992 452.133C14.0546 452.272 14.1973 452.425 14.3255 452.59L55.0283 504.922C55.8006 505.915 56.9532 506.539 58.2067 506.644L66.8051 507.36C67.7313 507.438 68.5888 507.88 69.1885 508.59L204.105 668.347C205.678 670.21 208.45 670.481 210.354 668.957L211.851 667.76C213.304 666.597 215.412 666.775 216.65 668.164L232.133 685.535C233.711 687.305 236.392 687.547 238.262 686.088L378.519 576.571C379.912 575.484 381.898 575.605 383.148 576.855L468.133 661.84C469.746 663.453 472.31 663.604 474.101 662.192L521.014 625.202C522.552 623.99 523.129 621.921 522.441 620.088L442.517 407.12C441.973 405.669 442.447 404.033 443.683 403.098L460.731 390.208C461.339 389.749 462.08 389.5 462.842 389.5H468.12C468.772 389.5 469.416 389.358 470.008 389.085L647.282 307.151C647.602 307.004 647.903 306.819 648.179 306.601L746.809 228.893Z" fill="#F0FFFB" stroke="#6F6F6F"/>
<path d="M162.984 519.495L101.192 445.714C99.7262 443.964 100.02 441.344 101.837 439.962L143.551 408.243C145.215 406.977 147.573 407.207 148.962 408.769L160.009 421.197C161.41 422.774 163.794 422.991 165.457 421.695L261.24 347.041C263.023 345.651 263.301 343.061 261.854 341.325L252.209 329.751C250.738 327.986 251.054 325.347 252.899 323.978L292.888 294.309C294.623 293.022 297.065 293.344 298.407 295.037L356.482 368.322C357.867 370.07 357.555 372.614 355.788 373.975L329.896 393.924C329.098 394.54 327.967 394.467 327.254 393.754C326.538 393.038 325.4 392.968 324.602 393.591L195.271 494.508C194.572 495.054 194.453 496.066 195.007 496.759C195.556 497.445 195.446 498.445 194.761 498.995L168.555 520.046C166.858 521.409 164.382 521.165 162.984 519.495Z" fill="white" stroke="#6F6F6F"/>
<path d="M388.555 281.46L356.53 241.646C355.137 239.913 355.424 237.376 357.169 235.999L471.805 145.522C473.56 144.136 476.111 144.459 477.466 146.238L539.552 227.784C540.9 229.555 543.434 229.885 545.19 228.519L547.811 226.48C549.567 225.115 552.1 225.444 553.448 227.214L556.617 231.373C557.94 233.108 557.627 235.584 555.914 236.936L552.598 239.554C550.881 240.91 550.572 243.395 551.905 245.13L578.57 279.838C579.913 281.586 579.589 284.091 577.845 285.439L465.108 372.597C463.382 373.931 460.906 373.637 459.541 371.936L432.112 337.755C430.688 335.98 428.072 335.75 426.359 337.249L424.612 338.777C422.91 340.266 420.314 340.05 418.882 338.3L415.096 333.673C413.673 331.934 413.962 329.363 415.736 327.983L418.299 325.99C420.06 324.62 420.36 322.075 418.967 320.333L407.908 306.509C406.564 304.83 404.132 304.513 402.403 305.794L395.14 311.174C393.394 312.468 390.935 312.131 389.601 310.416L380.357 298.53C379.04 296.837 379.293 294.406 380.93 293.021L388.021 287.02C389.678 285.618 389.915 283.151 388.555 281.46Z" fill="white" stroke="#6F6F6F"/>
<path d="M648.067 148.137L558.704 177.608C557.085 178.142 555.306 177.592 554.272 176.237L537.356 154.085C536.043 152.366 536.334 149.916 538.012 148.553L540.469 146.556C541.942 145.359 542.371 143.291 541.495 141.607L537.647 134.206C536.945 132.855 537.07 131.223 537.97 129.995L541.284 125.477C541.751 124.84 542.396 124.356 543.138 124.085L763.106 43.8261C763.694 43.6117 764.324 43.5381 764.945 43.6111L770.664 44.284C771.829 44.4211 772.875 45.0622 773.525 46.0378L775.976 49.7143C776.321 50.231 776.54 50.8208 776.617 51.437L782.221 96.2642C782.394 97.6522 781.83 99.03 780.733 99.8977L729.675 140.28C728.367 141.315 727.838 143.052 728.347 144.64L739.616 179.745C740.143 181.389 739.556 183.186 738.16 184.202L724.758 193.949C724.259 194.311 723.684 194.554 723.076 194.657L703.857 197.929C701.922 198.258 700.034 197.135 699.4 195.277L687.283 159.759C686.573 157.679 684.317 156.561 682.232 157.256L671.438 160.854C670.221 161.26 668.883 161.057 667.84 160.309L651.653 148.687C650.614 147.941 649.282 147.737 648.067 148.137Z" fill="white" stroke="#6F6F6F"/>
</svg>
