<svg width="879" height="688" viewBox="0 0 879 688" fill="none" xmlns="http://www.w3.org/2000/svg">
<path d="M746.809 228.893L746.825 228.88L746.84 228.867L873.396 111.74C874.086 111.101 874.559 110.263 874.748 109.342L878.163 92.696C878.399 91.5452 878.175 90.3478 877.54 89.3595L825.691 8.65064C825.489 8.33619 825.249 8.04815 824.975 7.79314L818.994 2.21025L818.653 2.57578L818.994 2.21024C818.161 1.43253 817.063 1 815.923 1H754.232C753.688 1 753.147 1.09886 752.638 1.29178L555.86 75.829C555.459 75.9808 555.082 76.189 554.741 76.4473L512.66 108.252C512.392 108.455 512.097 108.618 511.783 108.736L423.641 141.913C423.404 142.002 423.174 142.111 422.955 142.24L311.248 207.568L311.227 207.58L311.208 207.594L218.708 274.094L218.708 274.094L141.708 329.594L141.707 329.595L14.5978 421.313C14.3061 421.523 14.0406 421.768 13.8072 422.042L14.1876 422.366L13.8072 422.042L2.15201 435.706C0.567299 437.564 0.753598 440.347 2.57181 441.977L13.8992 452.133L14.233 451.761L13.8992 452.133C14.0546 452.272 14.1973 452.425 14.3255 452.59L55.0283 504.922C55.8006 505.915 56.9532 506.539 58.2067 506.644L66.8051 507.36C67.7313 507.438 68.5888 507.88 69.1885 508.59L204.105 668.347C205.678 670.21 208.45 670.481 210.354 668.957L211.851 667.76C213.304 666.597 215.412 666.775 216.65 668.164L232.133 685.535C233.711 687.305 236.392 687.547 238.262 686.088L378.519 576.571C379.912 575.484 381.898 575.605 383.148 576.855L468.133 661.84C469.746 663.453 472.31 663.604 474.101 662.192L521.014 625.202C522.552 623.99 523.129 621.921 522.441 620.088L442.517 407.12C441.973 405.669 442.447 404.033 443.683 403.098L460.731 390.208C461.339 389.749 462.08 389.5 462.842 389.5H468.12C468.772 389.5 469.416 389.358 470.008 389.085L647.282 307.151C647.602 307.004 647.903 306.819 648.179 306.601L746.809 228.893Z" fill="#F8F8F8" stroke="#6F6F6F"/>
<path d="M162.984 519.495L101.192 445.714C99.7262 443.964 100.02 441.344 101.837 439.962L143.551 408.243C145.215 406.977 147.573 407.207 148.962 408.769L160.009 421.197C161.41 422.774 163.794 422.991 165.457 421.695L261.24 347.041C263.023 345.651 263.301 343.061 261.854 341.325L252.209 329.751C250.738 327.986 251.054 325.347 252.899 323.978L292.888 294.309C294.623 293.022 297.065 293.344 298.407 295.037L356.482 368.322C357.867 370.07 357.555 372.614 355.788 373.975L329.896 393.924C329.098 394.54 327.967 394.467 327.254 393.754C326.538 393.038 325.4 392.968 324.602 393.591L195.271 494.508C194.572 495.054 194.453 496.066 195.007 496.759C195.556 497.445 195.446 498.445 194.761 498.995L168.555 520.046C166.858 521.409 164.382 521.165 162.984 519.495Z" fill="#F8F8F8" stroke="#6F6F6F"/>
<path d="M388.555 281.46L356.53 241.646C355.137 239.913 355.424 237.376 357.169 235.999L471.805 145.522C473.56 144.136 476.111 144.459 477.466 146.238L539.552 227.784C540.9 229.555 543.434 229.885 545.19 228.519L547.811 226.48C549.567 225.115 552.1 225.444 553.448 227.214L556.617 231.373C557.94 233.108 557.627 235.584 555.914 236.936L552.598 239.554C550.881 240.91 550.572 243.395 551.905 245.13L578.57 279.838C579.913 281.586 579.589 284.091 577.845 285.439L465.108 372.597C463.382 373.931 460.906 373.637 459.541 371.936L432.112 337.755C430.688 335.98 428.072 335.75 426.359 337.249L424.612 338.777C422.91 340.266 420.314 340.05 418.882 338.3L415.096 333.673C413.673 331.934 413.962 329.363 415.736 327.983L418.299 325.99C420.06 324.62 420.36 322.075 418.967 320.333L407.908 306.509C406.564 304.83 404.132 304.513 402.403 305.794L395.14 311.174C393.394 312.468 390.935 312.131 389.601 310.416L380.357 298.53C379.04 296.837 379.293 294.406 380.93 293.021L388.021 287.02C389.678 285.618 389.915 283.151 388.555 281.46Z" fill="#F8F8F8" stroke="#6F6F6F"/>
<path d="M648.067 148.137L558.704 177.608C557.085 178.142 555.306 177.592 554.272 176.237L537.356 154.085C536.043 152.366 536.334 149.916 538.012 148.553L540.469 146.556C541.942 145.359 542.371 143.291 541.495 141.607L537.647 134.206C536.945 132.855 537.07 131.223 537.97 129.995L541.284 125.477C541.751 124.84 542.396 124.356 543.138 124.085L763.106 43.8261C763.694 43.6117 764.324 43.5381 764.945 43.6111L770.664 44.284C771.829 44.4211 772.875 45.0622 773.525 46.0378L775.976 49.7143C776.321 50.231 776.54 50.8208 776.617 51.437L782.221 96.2642C782.394 97.6522 781.83 99.03 780.733 99.8977L729.675 140.28C728.367 141.315 727.838 143.052 728.347 144.64L739.616 179.745C740.143 181.389 739.556 183.186 738.16 184.202L724.758 193.949C724.259 194.311 723.684 194.554 723.076 194.657L703.857 197.929C701.922 198.258 700.034 197.135 699.4 195.277L687.283 159.759C686.573 157.679 684.317 156.561 682.232 157.256L671.438 160.854C670.221 161.26 668.883 161.057 667.84 160.309L651.653 148.687C650.614 147.941 649.282 147.737 648.067 148.137Z" fill="#F8F8F8" stroke="#6F6F6F"/>
<path d="M608.268 188.085L559.232 206.08C556.663 207.023 555.778 210.21 557.494 212.342L588.928 251.411C588.976 251.47 589.022 251.53 589.068 251.591C589.494 252.145 591.884 255.048 595.5 255.5C599.165 255.958 603.249 253.479 603.908 253.059C603.971 253.019 604.026 252.985 604.09 252.947C605.748 251.974 629.76 237.913 637 235.5C644.5 233 660.5 230.5 663.5 229.5C665.244 228.918 668.002 227.154 670.006 225.779C671.497 224.755 672.033 222.833 671.361 221.154L665.907 207.518C665.118 205.545 662.924 204.533 660.911 205.215L635.449 213.833C633.494 214.494 631.357 213.56 630.515 211.675L621.529 191.564C621.51 191.521 621.492 191.481 621.473 191.438C621.256 190.951 619.694 187.739 616 187C612.594 186.319 609.55 187.523 608.722 187.895C608.572 187.963 608.423 188.028 608.268 188.085Z" fill="#F8F8F8" stroke="#6F6F6F"/>
<path d="M240.83 465.939L208.261 490.992C206.475 492.366 206.175 494.942 207.598 496.689L213.492 503.922C214.88 505.626 217.383 505.89 219.097 504.515L250.944 478.953C252.642 477.59 252.938 475.12 251.611 473.394L246.439 466.67C245.092 464.919 242.581 464.592 240.83 465.939Z" fill="#F8F8F8" stroke="#6F6F6F"/>
<path d="M318.409 404.938L289.394 427.823C287.564 429.267 287.351 431.964 288.932 433.677L295.477 440.766C296.899 442.307 299.269 442.488 300.909 441.181L329.338 418.52C331.079 417.133 331.352 414.591 329.946 412.866L323.987 405.552C322.607 403.859 320.124 403.585 318.409 404.938Z" fill="#F8F8F8" stroke="#6F6F6F"/>
<path d="M166.008 410.188L151.846 394.211C150.308 392.475 150.563 389.799 152.403 388.386L224.044 333.351C224.346 333.118 224.681 332.93 225.037 332.792L237.284 328.052C238.903 327.425 240.741 327.914 241.835 329.263L252.433 342.334C253.843 344.073 253.552 346.63 251.787 348.007L171.462 410.689C169.797 411.988 167.409 411.769 166.008 410.188Z" fill="#F8F8F8" stroke="#6F6F6F"/>
<path d="M50.2354 425.96L19.6622 448.994C18.12 450.156 15.968 450.051 14.547 448.743L7.32007 442.094C5.7434 440.644 5.58954 438.209 6.97113 436.571L17.6926 423.864C17.8968 423.622 18.129 423.405 18.3844 423.218L37.384 409.285C39.1221 408.01 41.5575 408.342 42.8914 410.035L50.9704 420.289C52.3585 422.051 52.0269 424.61 50.2354 425.96Z" fill="#F8F8F8" stroke="#6F6F6F"/>
<path d="M55.6467 405.882L53.3891 403.302C51.8385 401.53 52.1466 398.808 54.0541 397.428L152.44 326.215C154.158 324.972 156.547 325.285 157.886 326.929L163.924 334.339C165.339 336.075 165.053 338.634 163.29 340.015L79.4261 405.708C77.7765 407 75.4093 406.8 73.9997 405.25L73.3553 404.541C72.2383 403.312 70.4784 402.901 68.9329 403.508L60.1196 406.971C58.5482 407.588 56.7584 407.152 55.6467 405.882Z" fill="#F8F8F8" stroke="#6F6F6F"/>
<path d="M282.118 232.312L162.521 318.949C160.626 320.322 160.309 323.022 161.835 324.797L178.091 343.698C179.451 345.28 181.799 345.551 183.483 344.32L295.86 262.198C296.891 261.445 297.5 260.245 297.5 258.969V254.409C297.5 253.811 297.366 253.22 297.107 252.68L288.072 233.823C286.993 231.572 284.139 230.848 282.118 232.312Z" fill="#F8F8F8" stroke="#6F6F6F"/>
<path d="M412.078 372.904L403.612 378.093C401.849 379.173 399.553 378.732 398.316 377.075L347.5 309L320.516 268.524C319.871 267.556 319.679 266.356 319.99 265.235L321.053 261.41C321.594 259.463 323.502 258.225 325.5 258.525L330.199 259.23C331.343 259.401 332.357 260.06 332.979 261.035L357.5 299.5L413.075 366.95C414.62 368.825 414.15 371.634 412.078 372.904Z" fill="#F8F8F8" stroke="#6F6F6F"/>
<path d="M82.1851 485.861L67.6299 496.778C64.9431 498.793 66.1535 503.059 69.4982 503.363C70.4603 503.451 71.349 503.914 71.9713 504.653L204.921 662.531C206.134 663.972 208.188 664.371 209.852 663.49L212.689 661.988C214.335 661.117 216.364 661.497 217.583 662.904L232.559 680.183C233.934 681.77 236.302 682.023 237.982 680.764L255.603 667.548C257.445 666.166 257.743 663.518 256.254 661.761L99.2495 476.564C98.1927 475.317 96.4838 474.839 94.9334 475.356L83.9786 479.007C82.4785 479.507 81.8645 481.297 82.7416 482.612C83.4476 483.671 83.2033 485.097 82.1851 485.861Z" fill="#F8F8F8" stroke="#6F6F6F"/>
<path d="M300.931 482.298L295.026 476.136C293.595 474.643 291.262 474.486 289.645 475.775L199.429 547.658C199.144 547.885 198.892 548.15 198.679 548.445L193.629 555.437C192.916 556.424 192.691 557.684 193.02 558.857L194.394 563.764C195.16 566.502 198.458 567.588 200.702 565.843L300.499 488.223C302.371 486.767 302.572 484.01 300.931 482.298Z" fill="#F8F8F8" stroke="#6F6F6F"/>
<path d="M304.504 491.855L203.34 571.375C201.529 572.798 201.291 575.454 202.821 577.176L269.008 651.694C270.409 653.272 272.795 653.489 274.459 652.191L379.344 570.352C381.27 568.85 381.411 565.987 379.642 564.302L373.659 558.603C372.915 557.895 371.927 557.5 370.9 557.5H368.325C367.166 557.5 366.064 556.997 365.304 556.121L309.997 492.378C308.599 490.767 306.182 490.536 304.504 491.855Z" fill="#F8F8F8" stroke="#6F6F6F"/>
<path d="M468.498 652.923L388.994 571.039C388.154 570.174 386.787 570.111 385.871 570.896C384.862 571.761 384.803 573.303 385.743 574.243L468.491 656.991C469.922 658.422 472.198 658.559 473.79 657.308L519.175 621.648C519.67 621.26 519.867 620.602 519.668 620.004C519.342 619.027 518.147 618.666 517.335 619.301L473.83 653.289C472.22 654.547 469.921 654.389 468.498 652.923Z" fill="#F8F8F8" stroke="#6F6F6F"/>
<path d="M416.637 380.587L306.445 465.35C304.59 466.777 304.35 469.483 305.925 471.214L368.568 540.026C368.854 540.34 369.188 540.606 369.558 540.815L379.09 546.203C379.994 546.714 381.062 546.853 382.068 546.591L391.214 544.205C391.733 544.07 392.219 543.832 392.644 543.505L453.03 497.054C455.064 495.489 458.024 496.218 459.1 498.547L513.273 615.843C513.868 617.132 515.565 617.435 516.569 616.431C517.136 615.864 517.318 615.018 517.036 614.268L438.167 404.944C438.056 404.649 437.91 404.368 437.733 404.107L422.384 381.51C421.091 379.606 418.461 379.184 416.637 380.587Z" fill="#F8F8F8" stroke="#6F6F6F"/>
<path d="M423.714 145.666L319.076 206.626C316.941 207.869 316.433 210.731 318.009 212.633L339.013 237.997C340.397 239.668 342.86 239.932 344.566 238.591L471.508 138.851C473.184 137.534 475.598 137.763 476.997 139.372L481.648 144.72C483.183 146.486 485.9 146.562 487.532 144.886L500.866 131.192C502.126 129.898 502.362 127.921 501.444 126.366L498.213 120.9C497.223 119.224 495.171 118.504 493.351 119.194L424.309 145.383C424.103 145.461 423.904 145.556 423.714 145.666Z" fill="#F8F8F8" stroke="#6F6F6F"/>
<path d="M570.779 302.977L471.631 379.211C469.473 380.869 471.185 384.288 473.806 383.554C473.935 383.518 474.061 383.472 474.183 383.415L646.569 303.201C646.855 303.067 647.125 302.901 647.372 302.704L747.5 223L817.727 157.583C819.07 156.332 818.752 154.126 817.111 153.305C816.14 152.82 814.97 152.981 814.167 153.711L745.713 215.852C745.245 216.278 744.681 216.586 744.07 216.752L636.501 245.864C636.168 245.954 635.849 246.087 635.55 246.259L605.004 263.846C603.764 264.56 603 265.882 603 267.313V272.18C603 273.037 603.275 273.872 603.786 274.561L620.471 297.087C621.843 298.938 621.371 301.561 619.441 302.819L593.149 319.949C591.379 321.102 589.017 320.68 587.756 318.985L576.426 303.76C575.092 301.968 572.55 301.615 570.779 302.977Z" fill="#F8F8F8" stroke="#6F6F6F"/>
<path d="M725.429 202.606L706.099 206.203C705.129 206.383 704.145 205.968 703.598 205.147C702.61 203.665 703.472 201.657 705.226 201.352L723.587 198.159C724.188 198.054 724.757 197.814 725.25 197.456L742.172 185.187C743.563 184.179 744.155 182.396 743.642 180.756L742 175.5L734.306 151.965C733.816 150.466 734.253 148.818 735.422 147.758L746.397 137.812C748.087 136.28 750.714 136.47 752.167 138.228L767.584 156.891C768.176 157.608 768.5 158.509 768.5 159.438V164.631C768.5 165.518 768.205 166.381 767.661 167.082L750.047 189.795C749.687 190.259 749.229 190.639 748.705 190.906L726.517 202.236C726.174 202.411 725.808 202.536 725.429 202.606Z" fill="#F8F8F8" stroke="#6F6F6F"/>
<path d="M555.044 80.3472L516.783 109.499C514.987 110.867 514.678 113.45 516.102 115.203L517.501 116.924C518.885 118.627 521.383 118.897 523.099 117.529L558.997 88.9013C559.33 88.6355 559.704 88.4247 560.104 88.2768L661.148 50.9241C663.259 50.1437 664.31 47.7762 663.475 45.6867L662.465 43.1624C661.653 41.1315 659.36 40.1297 657.318 40.9137L556.035 79.7947C555.68 79.9309 555.347 80.1169 555.044 80.3472Z" fill="#F8F8F8" stroke="#6F6F6F"/>
<path d="M672.083 43.2815L670.922 40.2334C670.136 38.1708 671.17 35.8615 673.232 35.0732L753.81 4.26379C754.266 4.08941 754.75 4 755.239 4H765.5C767.709 4 769.5 5.79086 769.5 8V8.228C769.5 9.89538 768.466 11.3879 766.904 11.9733L677.226 45.6028C675.165 46.3756 672.867 45.3383 672.083 43.2815Z" fill="#F8F8F8" stroke="#6F6F6F"/>
<path d="M773.5 12.3968V8C773.5 5.79086 775.291 4 777.5 4H815.173C816.334 4 817.436 4.50363 818.196 5.38028L823.304 11.2738C823.434 11.4244 823.554 11.5845 823.66 11.7528L873.616 90.6044C874.182 91.4982 874.371 92.5799 874.142 93.6128L870.772 108.774C870.595 109.572 870.177 110.297 869.576 110.85L834.651 142.981C833.625 143.925 832.183 144.267 830.843 143.884L819.577 140.665C819.195 140.556 818.83 140.39 818.496 140.173L810.407 134.914C809.507 134.329 808.88 133.408 808.666 132.356L802 99.5L793.622 47.7547C793.541 47.2561 793.367 46.7773 793.108 46.3436L774.066 14.4472C773.695 13.8273 773.5 13.1188 773.5 12.3968Z" fill="#F8F8F8" stroke="#6F6F6F"/>
<path d="M659.834 66.3134L573.738 97.1607C571.669 97.902 570.586 100.173 571.312 102.248L572.156 104.661C572.895 106.771 575.219 107.866 577.316 107.092L663.181 75.409C665.28 74.6348 666.335 72.2908 665.525 70.2065L664.911 68.6292C664.126 66.6093 661.874 65.5824 659.834 66.3134Z" fill="#F8F8F8" stroke="#6F6F6F"/>
<path d="M751.491 32.4215L689.418 55.3743C687.379 56.1286 686.315 58.3746 687.025 60.4307L687.707 62.4073C688.436 64.5218 690.758 65.6271 692.859 64.8601L755.226 42.0963C757.41 41.2992 758.456 38.8145 757.501 36.695L756.525 34.5294C755.661 32.6134 753.462 31.6926 751.491 32.4215Z" fill="#F8F8F8" stroke="#6F6F6F"/>
</svg>
