<?xml version="1.0" encoding="UTF-8"?>
<svg xmlns="http://www.w3.org/2000/svg" xmlns:xlink="http://www.w3.org/1999/xlink" width="3003" height="3003" viewBox="0 0 3003 3003">
<path fill-rule="nonzero" fill="rgb(99.609375%, 99.609375%, 99.609375%)" fill-opacity="1" d="M 1.042969 0 C 0.765625 0 0.5 0.109375 0.304688 0.308594 C 0.109375 0.5 0 0.769531 0 1.039062 L 0 3001.042969 C 0 3001.617188 0.46875 3002.085938 1.042969 3002.085938 L 3001.039062 3002.085938 C 3001.320312 3002.085938 3001.589844 3001.976562 3001.78125 3001.78125 C 3001.980469 3001.585938 3002.089844 3001.320312 3002.089844 3001.042969 L 3002.089844 1.039062 C 3002.089844 0.46875 3001.621094 0 3001.039062 0 Z M 1.042969 0 "/>
<path fill-rule="nonzero" fill="rgb(0%, 0%, 0%)" fill-opacity="1" d="M 1366.789062 2550.769531 C 1367.179688 2550.769531 1367.570312 2550.773438 1367.949219 2550.78125 C 1375.351562 2550.988281 1380.519531 2552.539062 1383.46875 2555.4375 C 1385.75 2557.609375 1386.890625 2560.871094 1386.890625 2565.214844 C 1386.78125 2570.855469 1384.660156 2574.761719 1380.519531 2576.9375 C 1377.421875 2578.644531 1372.730469 2579.496094 1366.46875 2579.496094 C 1366.289062 2579.472656 1366.109375 2579.457031 1365.929688 2579.457031 C 1365.75 2579.457031 1365.570312 2579.472656 1365.390625 2579.496094 C 1363.839844 2579.445312 1362.101562 2579.34375 1360.191406 2579.1875 L 1360.191406 2551.089844 C 1362.601562 2550.875 1364.800781 2550.769531 1366.789062 2550.769531 Z M 1588.261719 2550.113281 C 1592.449219 2550.113281 1596.160156 2551.421875 1599.390625 2554.039062 C 1602.648438 2556.730469 1604.429688 2560.402344 1604.738281 2565.0625 C 1604.800781 2565.527344 1604.800781 2566.378906 1604.738281 2567.621094 C 1604.691406 2568.191406 1604.609375 2568.863281 1604.511719 2569.640625 C 1603.839844 2573.988281 1601.851562 2577.480469 1598.539062 2580.117188 C 1595 2583.035156 1591.410156 2584.492188 1587.789062 2584.492188 C 1587.488281 2584.492188 1587.191406 2584.484375 1586.890625 2584.464844 C 1585.441406 2584.464844 1581.378906 2584.207031 1574.710938 2583.6875 L 1574.710938 2571.503906 C 1574.710938 2571.347656 1574.710938 2571.140625 1574.710938 2570.882812 C 1574.660156 2570.15625 1574.660156 2569.433594 1574.710938 2568.710938 C 1574.710938 2568.65625 1574.710938 2568.476562 1574.710938 2568.164062 L 1574.710938 2550.9375 C 1579.570312 2550.417969 1583.628906 2550.160156 1586.890625 2550.160156 C 1587.351562 2550.128906 1587.808594 2550.113281 1588.261719 2550.113281 Z M 1316.019531 2550.546875 C 1322.859375 2550.546875 1328.519531 2553.265625 1333.019531 2558.695312 C 1337.519531 2564.128906 1339.769531 2570.777344 1339.769531 2578.644531 C 1339.769531 2586.457031 1337.519531 2593.078125 1333.019531 2598.511719 C 1328.519531 2603.996094 1322.859375 2606.738281 1316.019531 2606.738281 C 1309.25 2606.738281 1303.761719 2603.996094 1299.570312 2598.511719 C 1295.589844 2593.234375 1293.589844 2586.613281 1293.589844 2578.644531 C 1293.589844 2570.625 1295.589844 2564 1299.570312 2558.773438 C 1303.761719 2553.289062 1309.25 2550.546875 1316.019531 2550.546875 Z M 1251.378906 2547.519531 L 1251.378906 2609.457031 L 1282.570312 2609.457031 L 1282.570312 2605.652344 L 1255.25 2605.652344 L 1255.25 2547.519531 Z M 1450.140625 2547.441406 L 1450.140625 2609.457031 L 1454.019531 2609.457031 L 1454.019531 2555.746094 L 1474.359375 2596.726562 L 1494.070312 2555.980469 L 1494.070312 2609.457031 L 1497.871094 2609.457031 L 1497.871094 2547.441406 L 1494.070312 2547.445312 L 1474.28125 2586.792969 L 1454.019531 2547.441406 Z M 1719.21875 2547.441406 L 1719.21875 2609.457031 L 1723.101562 2609.457031 L 1723.101562 2555.746094 L 1743.441406 2596.726562 L 1763.148438 2555.980469 L 1763.148438 2609.457031 L 1766.949219 2609.457031 L 1766.949219 2547.441406 L 1763.148438 2547.445312 L 1743.359375 2586.792969 L 1723.101562 2547.441406 Z M 1368.019531 2546.800781 C 1364.878906 2546.800781 1360.96875 2547.09375 1356.308594 2547.675781 L 1356.308594 2609.53125 L 1360.191406 2609.535156 L 1360.191406 2582.988281 C 1362.769531 2583.25 1364.839844 2583.402344 1366.390625 2583.457031 C 1374.980469 2591.527344 1383.5 2600.140625 1391.929688 2609.300781 L 1397.058594 2609.300781 C 1388.820312 2600.144531 1380.5 2591.476562 1372.058594 2583.300781 C 1378.121094 2582.730469 1382.640625 2581.074219 1385.640625 2578.332031 C 1388.691406 2575.539062 1390.480469 2571.246094 1391 2565.449219 C 1391 2565.398438 1391 2565.34375 1391 2565.292969 L 1391 2565.214844 C 1390.941406 2559.785156 1389.570312 2555.617188 1386.890625 2552.722656 C 1383.421875 2549.046875 1377.601562 2547.082031 1369.421875 2546.824219 C 1368.96875 2546.808594 1368.511719 2546.800781 1368.019531 2546.800781 Z M 1407.300781 2547.597656 L 1407.300781 2609.53125 L 1438.339844 2609.535156 L 1438.339844 2605.730469 L 1411.179688 2605.808594 L 1411.179688 2577.710938 L 1438.421875 2577.710938 L 1438.421875 2573.832031 L 1411.179688 2573.832031 L 1411.179688 2551.480469 L 1438.421875 2551.480469 L 1438.421875 2547.597656 Z M 1550.808594 2547.441406 L 1550.808594 2609.609375 L 1554.679688 2609.613281 L 1554.679688 2547.441406 Z M 1588.261719 2546.347656 C 1587.539062 2546.347656 1586.789062 2546.378906 1586.039062 2546.433594 C 1584.230469 2546.433594 1579.160156 2546.769531 1570.828125 2547.441406 L 1570.828125 2609.765625 L 1574.710938 2609.765625 L 1574.710938 2587.570312 C 1579.679688 2587.984375 1583.449219 2588.191406 1586.039062 2588.191406 C 1591.519531 2588.191406 1596.410156 2586.558594 1600.710938 2583.300781 C 1605.46875 2579.625 1608.128906 2574.890625 1608.699219 2569.097656 C 1608.699219 2568.683594 1608.730469 2568.113281 1608.78125 2567.390625 C 1608.78125 2566.71875 1608.78125 2566.171875 1608.78125 2565.757812 C 1608.730469 2565.550781 1608.699219 2565.140625 1608.699219 2564.519531 C 1608.550781 2561.15625 1607.769531 2558.335938 1606.378906 2556.058594 C 1605.390625 2554.402344 1603.761719 2552.644531 1601.480469 2550.78125 C 1597.890625 2547.828125 1593.480469 2546.347656 1588.261719 2546.347656 Z M 1635.320312 2546.589844 C 1631.75 2546.589844 1628.679688 2547.441406 1626.089844 2549.152344 C 1622.878906 2551.324219 1620.808594 2554.660156 1619.878906 2559.164062 C 1619.671875 2560.144531 1619.570312 2561.101562 1619.570312 2562.035156 C 1619.570312 2565.605469 1621.140625 2568.917969 1624.300781 2571.96875 C 1625.078125 2572.691406 1628.359375 2575.175781 1634.160156 2579.421875 C 1638.761719 2582.78125 1641.789062 2585.1875 1643.238281 2586.636719 C 1646.089844 2589.484375 1647.511719 2592.226562 1647.511719 2594.863281 C 1647.511719 2595.433594 1647.460938 2596.003906 1647.351562 2596.570312 C 1645.898438 2603.351562 1641.871094 2606.738281 1635.25 2606.738281 C 1634.058594 2606.738281 1632.808594 2606.609375 1631.519531 2606.351562 C 1627.230469 2605.472656 1623.140625 2603.738281 1619.261719 2601.152344 L 1619.261719 2605.34375 C 1622 2607.515625 1625.589844 2609.042969 1630.050781 2609.921875 C 1631.441406 2610.179688 1632.871094 2610.308594 1634.308594 2610.308594 C 1638.558594 2610.308594 1642.28125 2609.300781 1645.488281 2607.28125 C 1648.539062 2605.417969 1650.460938 2602.316406 1651.230469 2597.96875 C 1651.488281 2596.46875 1651.621094 2595.175781 1651.621094 2594.089844 C 1651.621094 2591.242188 1650.429688 2588.527344 1648.050781 2585.9375 C 1645.980469 2583.714844 1641.511719 2580.039062 1634.628906 2574.917969 C 1630.28125 2571.710938 1627.359375 2569.253906 1625.859375 2567.546875 C 1624.359375 2565.835938 1623.601562 2564.105469 1623.601562 2562.34375 C 1623.601562 2561.671875 1623.710938 2560.871094 1623.910156 2559.9375 C 1624.640625 2556.265625 1626.320312 2553.546875 1628.960938 2551.789062 C 1630.71875 2550.597656 1632.839844 2550.003906 1635.320312 2550.003906 C 1636.570312 2550.003906 1637.910156 2550.160156 1639.359375 2550.46875 C 1642.820312 2551.144531 1645.960938 2552.695312 1648.75 2555.128906 L 1648.75 2551.089844 C 1645.960938 2549.023438 1643.03125 2547.675781 1639.980469 2547.054688 C 1638.378906 2546.746094 1636.820312 2546.589844 1635.320312 2546.589844 Z M 1316.019531 2546.824219 C 1308.210938 2546.824219 1301.851562 2549.925781 1296.929688 2556.136719 C 1292.121094 2562.136719 1289.710938 2569.640625 1289.710938 2578.644531 C 1289.710938 2587.59375 1292.121094 2595.070312 1296.929688 2601.074219 C 1301.851562 2607.28125 1308.210938 2610.386719 1316.019531 2610.386719 C 1323.941406 2610.386719 1330.570312 2607.28125 1335.890625 2601.074219 C 1341.070312 2594.96875 1343.660156 2587.492188 1343.660156 2578.644531 C 1343.660156 2569.742188 1341.070312 2562.242188 1335.890625 2556.136719 C 1330.570312 2549.925781 1323.941406 2546.824219 1316.019531 2546.824219 Z M 1664.191406 2547.753906 L 1664.191406 2588.808594 C 1664.191406 2603.246094 1670.839844 2610.464844 1684.140625 2610.464844 C 1697.390625 2610.464844 1704.011719 2603.246094 1704.011719 2588.808594 L 1704.011719 2547.753906 L 1699.660156 2547.753906 L 1699.660156 2588.421875 C 1699.660156 2593.960938 1698.710938 2598.148438 1696.789062 2600.996094 C 1694.308594 2604.566406 1690.089844 2606.351562 1684.140625 2606.351562 C 1678.191406 2606.351562 1673.96875 2604.566406 1671.488281 2600.996094 C 1669.519531 2598.148438 1668.539062 2593.960938 1668.539062 2588.421875 L 1668.539062 2547.753906 Z M 1664.191406 2547.753906 "/>
<path fill-rule="nonzero" fill="rgb(0%, 0%, 0%)" fill-opacity="1" d="M 1317.929688 2315.945312 C 1321.71875 2315.945312 1324.640625 2316.828125 1326.679688 2318.589844 C 1328.660156 2320.351562 1329.660156 2326.824219 1329.660156 2338.003906 L 1329.660156 2338.996094 C 1329.660156 2346.648438 1329.320312 2352.269531 1328.660156 2355.847656 C 1328 2359.425781 1326.898438 2361.851562 1325.359375 2363.117188 C 1323.820312 2364.382812 1321.390625 2365.015625 1318.089844 2365.015625 L 1307.179688 2365.015625 L 1307.179688 2315.945312 Z M 1716.691406 2315.945312 C 1720.488281 2315.945312 1723.410156 2316.828125 1725.441406 2318.589844 C 1727.429688 2320.351562 1728.421875 2326.824219 1728.421875 2338.003906 L 1728.421875 2338.996094 C 1728.421875 2346.648438 1728.089844 2352.269531 1727.429688 2355.847656 C 1726.769531 2359.425781 1725.671875 2361.851562 1724.128906 2363.117188 C 1722.578125 2364.382812 1720.160156 2365.015625 1716.859375 2365.015625 L 1705.949219 2365.015625 L 1705.949219 2315.945312 Z M 1238.859375 2329.328125 L 1250.351562 2406.15625 L 1228.039062 2406.15625 L 1238.621094 2329.328125 Z M 1394.5 2315.945312 C 1399.410156 2315.945312 1402.929688 2317.929688 1405.078125 2321.894531 C 1407.230469 2325.859375 1408.300781 2332.386719 1408.300781 2341.472656 L 1408.300781 2408.390625 C 1408.300781 2421.277344 1406.289062 2429.152344 1402.269531 2432.015625 C 1400.398438 2433.335938 1397.808594 2434 1394.5 2434 L 1385.75 2434 L 1385.75 2315.945312 Z M 1228.128906 2302.398438 L 1206.070312 2447.792969 L 1222.339844 2447.792969 L 1226.140625 2420.035156 L 1252.5 2420.035156 L 1256.628906 2447.792969 L 1272.730469 2447.792969 L 1248.691406 2302.398438 Z M 1290.078125 2302.398438 L 1290.078125 2447.792969 L 1307.179688 2447.792969 L 1307.179688 2377.574219 L 1317.339844 2378.152344 C 1321.480469 2378.152344 1324.558594 2379.007812 1326.601562 2380.714844 C 1328.640625 2382.367188 1329.660156 2388.394531 1329.660156 2398.804688 C 1329.660156 2429.703125 1330.089844 2446.03125 1330.980469 2447.792969 L 1348 2447.792969 C 1347.109375 2445.480469 1346.671875 2437.386719 1346.671875 2423.507812 C 1346.671875 2409.683594 1346.289062 2399.246094 1345.519531 2392.195312 C 1344.75 2385.203125 1343.421875 2380.082031 1341.550781 2376.832031 C 1339.679688 2373.636719 1336.929688 2371.738281 1333.289062 2371.128906 C 1338.25 2369.644531 1341.710938 2366.367188 1343.699219 2361.300781 C 1345.628906 2356.234375 1346.589844 2349.953125 1346.589844 2342.464844 C 1346.589844 2335.03125 1346.429688 2329.550781 1346.089844 2326.023438 C 1345.320312 2317.433594 1343.039062 2311.347656 1339.238281 2307.769531 C 1335.441406 2304.1875 1329.210938 2302.398438 1320.570312 2302.398438 Z M 1368.730469 2302.398438 L 1368.730469 2447.792969 L 1395.5 2447.792969 C 1406.289062 2447.792969 1413.96875 2444.515625 1418.539062 2437.964844 C 1423.121094 2431.410156 1425.398438 2420.671875 1425.398438 2405.746094 L 1425.320312 2341.886719 C 1425.320312 2329.273438 1423.230469 2319.527344 1419.039062 2312.640625 C 1414.859375 2305.8125 1407.199219 2302.398438 1396.070312 2302.398438 Z M 1447.210938 2302.398438 L 1447.210938 2447.792969 L 1491 2447.792969 L 1491 2433.585938 L 1464.308594 2433.585938 L 1464.308594 2380.546875 L 1489.261719 2380.546875 L 1489.261719 2366.339844 L 1464.308594 2366.339844 L 1464.308594 2316.605469 L 1490.660156 2316.605469 L 1490.660156 2302.398438 Z M 1510.910156 2302.398438 L 1510.910156 2447.792969 L 1526.679688 2447.792969 L 1526.679688 2384.679688 L 1525.691406 2348 L 1558.320312 2447.792969 L 1570.878906 2447.792969 L 1570.878906 2302.398438 L 1555.761719 2302.398438 L 1555.761719 2359.316406 L 1557.5 2401.367188 L 1523.789062 2302.398438 Z M 1626.640625 2302.398438 L 1626.640625 2316.605469 L 1642.671875 2316.605469 L 1642.671875 2447.792969 L 1659.691406 2447.792969 L 1659.691406 2316.605469 L 1674.640625 2316.605469 L 1674.640625 2302.398438 Z M 1688.851562 2302.398438 L 1688.851562 2447.792969 L 1705.949219 2447.792969 L 1705.949219 2377.574219 L 1716.109375 2378.152344 C 1720.238281 2378.152344 1723.328125 2379.007812 1725.359375 2380.714844 C 1727.398438 2382.367188 1728.421875 2388.394531 1728.421875 2398.804688 C 1728.421875 2429.703125 1728.859375 2446.03125 1729.738281 2447.792969 L 1746.761719 2447.792969 C 1745.878906 2445.480469 1745.441406 2437.386719 1745.441406 2423.507812 C 1745.441406 2409.683594 1745.058594 2399.246094 1744.28125 2392.195312 C 1743.511719 2385.203125 1742.191406 2380.082031 1740.320312 2376.832031 C 1738.441406 2373.636719 1735.691406 2371.738281 1732.058594 2371.128906 C 1737.011719 2369.644531 1740.480469 2366.367188 1742.46875 2361.300781 C 1744.390625 2356.234375 1745.359375 2349.953125 1745.359375 2342.464844 C 1745.359375 2335.03125 1745.191406 2329.550781 1744.859375 2326.023438 C 1744.089844 2317.433594 1741.808594 2311.347656 1738 2307.769531 C 1734.199219 2304.1875 1727.980469 2302.398438 1719.328125 2302.398438 Z M 1767.578125 2302.398438 L 1767.578125 2447.792969 L 1811.359375 2447.792969 L 1811.359375 2433.585938 L 1784.679688 2433.585938 L 1784.679688 2380.546875 L 1809.628906 2380.546875 L 1809.628906 2366.339844 L 1784.679688 2366.339844 L 1784.679688 2316.605469 L 1811.03125 2316.605469 L 1811.03125 2302.398438 Z M 1831.269531 2302.398438 L 1831.269531 2447.792969 L 1875.058594 2447.792969 L 1875.058594 2433.585938 L 1848.378906 2433.585938 L 1848.378906 2380.546875 L 1873.320312 2380.546875 L 1873.320312 2366.339844 L 1848.378906 2366.339844 L 1848.378906 2316.605469 L 1874.730469 2316.605469 L 1874.730469 2302.398438 Z M 1161.289062 2300.664062 C 1156.558594 2300.71875 1152.199219 2301.738281 1148.238281 2303.71875 C 1138.109375 2308.898438 1133.039062 2322.167969 1133.039062 2343.539062 L 1133.039062 2404.507812 C 1133.039062 2420.035156 1135.238281 2431.382812 1139.648438 2438.542969 C 1144.058594 2445.648438 1150.859375 2449.199219 1160.058594 2449.199219 C 1169.191406 2449.199219 1175.390625 2444.984375 1178.640625 2436.558594 L 1180.949219 2447.792969 L 1189.960938 2447.792969 L 1189.960938 2371.460938 L 1162.449219 2371.460938 L 1162.449219 2384.679688 L 1174.261719 2384.679688 L 1174.261719 2403.597656 C 1174.261719 2415.164062 1173.378906 2423.285156 1171.621094 2427.96875 C 1169.910156 2432.648438 1166.691406 2434.988281 1161.949219 2434.988281 C 1157.269531 2434.988281 1154.128906 2432.703125 1152.539062 2428.132812 C 1150.941406 2423.617188 1150.140625 2415.546875 1150.140625 2403.929688 L 1150.140625 2342.796875 C 1150.140625 2332.605469 1151.050781 2325.5 1152.871094 2321.480469 C 1154.679688 2317.460938 1157.820312 2315.449219 1162.289062 2315.449219 C 1166.691406 2315.449219 1169.660156 2317.046875 1171.210938 2320.242188 C 1172.691406 2323.4375 1173.441406 2328.75 1173.441406 2336.1875 L 1173.441406 2355.105469 L 1189.960938 2355.105469 L 1189.960938 2343.871094 C 1189.960938 2335.003906 1189.378906 2327.457031 1188.21875 2321.234375 C 1187.070312 2315.066406 1184.511719 2310.082031 1180.539062 2306.28125 C 1176.570312 2302.535156 1170.160156 2300.664062 1161.289062 2300.664062 Z M 1161.289062 2300.664062 "/>
<path fill-rule="nonzero" fill="rgb(22.363281%, 65.429688%, 19.604492%)" fill-opacity="1" d="M 1493.148438 416.210938 C 1252.480469 422.28125 1052.25 505.21875 892.441406 665.03125 C 732.636719 824.828125 649.695312 1025.070312 643.621094 1265.730469 C 643.847656 1344.148438 653.964844 1419.429688 673.96875 1491.558594 L 710.382812 1596.398438 C 739.265625 1664.378906 776.015625 1727.191406 820.628906 1784.839844 C 959.878906 1963.191406 1145.628906 2070.738281 1377.859375 2107.492188 C 1416.550781 2111.671875 1454.429688 2113.765625 1491.5 2113.765625 C 1687.640625 2113.765625 1861.230469 2055.257812 2012.269531 1938.238281 C 2190.609375 1799 2298.160156 1613.25 2334.910156 1381 L 2342.671875 1265.730469 C 2336.601562 1025.070312 2253.660156 824.828125 2093.851562 665.03125 C 1934.039062 505.21875 1733.808594 422.28125 1493.148438 416.210938 Z M 1493.148438 416.210938 "/>
<path fill-rule="nonzero" fill="rgb(22.363281%, 65.429688%, 19.604492%)" fill-opacity="1" d="M 1493.148438 416.210938 C 1252.480469 422.28125 1052.25 505.21875 892.441406 665.03125 C 732.636719 824.828125 649.695312 1025.070312 643.621094 1265.730469 C 643.847656 1344.148438 653.964844 1419.429688 673.96875 1491.558594 L 710.382812 1596.398438 C 739.265625 1664.378906 776.015625 1727.191406 820.628906 1784.839844 C 959.878906 1963.191406 1145.628906 2070.738281 1377.859375 2107.492188 C 1416.550781 2111.671875 1454.429688 2113.765625 1491.5 2113.765625 C 1687.640625 2113.765625 1861.230469 2055.257812 2012.269531 1938.238281 C 2190.609375 1799 2298.160156 1613.25 2334.910156 1381 L 2342.671875 1265.730469 C 2336.601562 1025.070312 2253.660156 824.828125 2093.851562 665.03125 C 1934.039062 505.21875 1733.808594 422.28125 1493.148438 416.210938 M 1493.148438 416.210938 C 1733.808594 422.28125 1934.039062 505.21875 2093.851562 665.03125 C 2253.660156 824.828125 2336.601562 1025.070312 2342.671875 1265.730469 L 2334.910156 1381 C 2298.160156 1613.25 2190.609375 1799 2012.269531 1938.238281 C 1861.230469 2055.257812 1687.640625 2113.765625 1491.5 2113.765625 C 1454.429688 2113.765625 1416.550781 2111.671875 1377.859375 2107.492188 C 1145.628906 2070.738281 959.878906 1963.191406 820.628906 1784.839844 C 776.015625 1727.191406 739.265625 1664.378906 710.382812 1596.398438 L 673.96875 1491.558594 C 653.964844 1419.429688 643.847656 1344.148438 643.621094 1265.730469 C 649.695312 1025.070312 732.636719 824.828125 892.441406 665.03125 C 1052.25 505.21875 1252.480469 422.28125 1493.148438 416.210938 Z M 1493.148438 416.210938 "/>
<path fill-rule="nonzero" fill="rgb(18.821716%, 58.396912%, 17.259216%)" fill-opacity="1" d="M 1585.480469 603.25 L 1505.5 765.03125 L 1339.390625 691.238281 L 1324.308594 741.859375 L 1333.71875 982 L 1349.539062 1042.808594 L 1242.121094 996.78125 L 1191.429688 1157.578125 L 1490 1294.871094 L 1513.488281 1342.808594 L 1319.699219 1258.011719 L 1242.808594 1402.539062 L 1517.761719 1519.25 L 1454.621094 1931.578125 L 1811.671875 2054.0625 C 1882.449219 2025.621094 1949.320312 1987.011719 2012.269531 1938.238281 C 2190.609375 1799 2298.160156 1613.25 2334.910156 1381 L 2342.671875 1265.730469 C 2338.410156 1097.148438 2296.441406 948.410156 2216.75 819.5 Z M 1585.480469 603.25 "/>
<path fill-rule="nonzero" fill="rgb(18.821716%, 58.396912%, 17.259216%)" fill-opacity="1" d="M 1585.480469 603.25 L 1505.5 765.03125 L 1339.390625 691.238281 L 1324.308594 741.859375 L 1333.71875 982 L 1349.539062 1042.808594 L 1242.121094 996.78125 L 1191.429688 1157.578125 L 1490 1294.871094 L 1513.488281 1342.808594 L 1319.699219 1258.011719 L 1242.808594 1402.539062 L 1517.761719 1519.25 L 1454.621094 1931.578125 L 1811.671875 2054.0625 C 1882.449219 2025.621094 1949.320312 1987.011719 2012.269531 1938.238281 C 2190.609375 1799 2298.160156 1613.25 2334.910156 1381 L 2342.671875 1265.730469 C 2338.410156 1097.160156 2296.441406 948.410156 2216.75 819.5 L 1585.480469 603.25 M 1585.480469 603.25 L 2216.75 819.5 C 2296.441406 948.410156 2338.410156 1097.160156 2342.671875 1265.730469 L 2334.910156 1381 C 2298.160156 1613.25 2190.609375 1799 2012.269531 1938.238281 C 1949.320312 1987.011719 1882.449219 2025.621094 1811.671875 2054.0625 L 1454.621094 1931.578125 L 1517.761719 1519.25 L 1242.808594 1402.539062 L 1319.699219 1258.011719 L 1513.488281 1342.808594 L 1490 1294.871094 L 1191.429688 1157.578125 L 1242.121094 996.78125 L 1349.539062 1042.808594 L 1333.71875 982 L 1324.308594 741.859375 L 1339.390625 691.238281 L 1505.5 765.03125 Z M 1585.480469 603.25 "/>
<path fill-rule="nonzero" fill="rgb(98.826599%, 99.21875%, 98.826599%)" fill-opacity="1" d="M 1194.28125 1158.191406 C 1118.738281 1134.960938 1082.488281 1035.320312 1082.488281 1035.320312 C 1082.488281 1035.320312 1168.71875 973.480469 1244.191406 996.78125 C 1319.710938 1020.089844 1355.941406 1119.761719 1355.941406 1119.761719 C 1355.941406 1119.761719 1269.820312 1181.628906 1194.28125 1158.191406 Z M 1194.28125 1158.191406 "/>
<path fill-rule="nonzero" fill="rgb(0%, 0%, 0%)" fill-opacity="1" d="M 1194.28125 1158.191406 C 1118.738281 1134.960938 1082.488281 1035.320312 1082.488281 1035.320312 C 1082.488281 1035.320312 1143.558594 991.53125 1207.878906 991.53125 C 1220 991.53125 1232.230469 993.089844 1244.191406 996.78125 C 1319.628906 1020.070312 1355.871094 1119.550781 1355.941406 1119.761719 C 1355.941406 1119.761719 1295.058594 1163.5 1230.78125 1163.5 C 1218.609375 1163.5 1206.308594 1161.929688 1194.28125 1158.191406 M 1194.28125 1158.191406 C 1206.308594 1161.929688 1218.609375 1163.5 1230.78125 1163.5 C 1295.058594 1163.5 1355.941406 1119.761719 1355.941406 1119.761719 C 1355.871094 1119.550781 1319.628906 1020.070312 1244.191406 996.78125 C 1232.230469 993.089844 1220 991.53125 1207.878906 991.53125 C 1143.558594 991.53125 1082.488281 1035.320312 1082.488281 1035.320312 C 1082.488281 1035.320312 1118.738281 1134.960938 1194.28125 1158.191406 Z M 1194.28125 1158.191406 "/>
<path fill-rule="nonzero" fill="rgb(98.826599%, 99.21875%, 98.826599%)" fill-opacity="1" d="M 1249.578125 1409.71875 C 1180.980469 1370.449219 1167.46875 1265.308594 1167.46875 1265.308594 C 1167.46875 1265.308594 1265.210938 1223.871094 1333.71875 1263.140625 C 1402.289062 1302.441406 1415.71875 1407.628906 1415.71875 1407.628906 C 1415.71875 1407.628906 1318.128906 1449.109375 1249.578125 1409.71875 Z M 1249.578125 1409.71875 "/>
<path fill-rule="nonzero" fill="rgb(0%, 0%, 0%)" fill-opacity="1" d="M 1249.578125 1409.71875 C 1180.980469 1370.449219 1167.46875 1265.308594 1167.46875 1265.308594 C 1167.46875 1265.308594 1212.460938 1246.230469 1262.789062 1246.230469 C 1286.640625 1246.230469 1311.691406 1250.519531 1333.71875 1263.140625 C 1402.269531 1302.441406 1415.710938 1407.570312 1415.71875 1407.628906 C 1415.71875 1407.628906 1370.851562 1426.699219 1320.601562 1426.699219 C 1296.730469 1426.699219 1271.648438 1422.398438 1249.578125 1409.71875 M 1249.578125 1409.71875 C 1271.648438 1422.398438 1296.730469 1426.699219 1320.601562 1426.699219 C 1370.851562 1426.699219 1415.71875 1407.628906 1415.71875 1407.628906 C 1415.710938 1407.570312 1402.269531 1302.441406 1333.71875 1263.140625 C 1311.691406 1250.519531 1286.640625 1246.230469 1262.789062 1246.230469 C 1212.460938 1246.230469 1167.46875 1265.308594 1167.46875 1265.308594 C 1167.46875 1265.308594 1180.980469 1370.449219 1249.578125 1409.71875 Z M 1249.578125 1409.71875 "/>
<path fill-rule="nonzero" fill="rgb(98.826599%, 99.21875%, 98.826599%)" fill-opacity="1" d="M 1256.609375 834.28125 C 1256.121094 755.320312 1340.300781 690.808594 1340.300781 690.808594 C 1340.300781 690.808594 1425.269531 754.390625 1425.710938 833.308594 C 1426.171875 912.289062 1341.941406 976.75 1341.941406 976.75 C 1341.941406 976.75 1256.96875 913.320312 1256.609375 834.28125 Z M 1256.609375 834.28125 "/>
<path fill-rule="nonzero" fill="rgb(0%, 0%, 0%)" fill-opacity="1" d="M 1256.609375 834.28125 C 1256.121094 755.339844 1340.25 690.839844 1340.300781 690.808594 C 1340.300781 690.808594 1425.269531 754.390625 1425.710938 833.308594 C 1426.171875 912.289062 1341.941406 976.75 1341.941406 976.75 C 1341.941406 976.75 1256.96875 913.320312 1256.609375 834.28125 M 1256.609375 834.28125 C 1256.96875 913.320312 1341.941406 976.75 1341.941406 976.75 C 1341.941406 976.75 1426.171875 912.289062 1425.710938 833.308594 C 1425.269531 754.390625 1340.300781 690.808594 1340.300781 690.808594 C 1340.25 690.839844 1256.121094 755.339844 1256.609375 834.28125 Z M 1256.609375 834.28125 "/>
<path fill-rule="nonzero" fill="rgb(98.826599%, 99.21875%, 98.826599%)" fill-opacity="1" d="M 1600.519531 877.421875 C 1641.578125 809.988281 1747.148438 799.230469 1747.148438 799.230469 C 1747.148438 799.230469 1786.03125 897.929688 1744.921875 965.320312 C 1703.808594 1032.769531 1598.25 1043.449219 1598.25 1043.449219 C 1598.25 1043.449219 1559.269531 944.890625 1600.519531 877.421875 Z M 1600.519531 877.421875 "/>
<path fill-rule="nonzero" fill="rgb(0%, 0%, 0%)" fill-opacity="1" d="M 1600.519531 877.421875 C 1641.578125 809.988281 1747.148438 799.230469 1747.148438 799.230469 C 1747.148438 799.230469 1763.789062 841.46875 1763.789062 889.550781 C 1763.789062 914.96875 1759.140625 942.019531 1744.921875 965.320312 C 1703.808594 1032.769531 1598.25 1043.449219 1598.25 1043.449219 C 1598.25 1043.449219 1581.578125 1001.300781 1581.578125 953.261719 C 1581.578125 927.839844 1586.25 900.769531 1600.519531 877.421875 M 1600.519531 877.421875 C 1586.25 900.769531 1581.578125 927.839844 1581.578125 953.261719 C 1581.578125 1001.300781 1598.25 1043.449219 1598.25 1043.449219 C 1598.25 1043.449219 1703.808594 1032.769531 1744.921875 965.320312 C 1759.140625 942.019531 1763.789062 914.96875 1763.789062 889.550781 C 1763.789062 841.46875 1747.148438 799.230469 1747.148438 799.230469 C 1747.148438 799.230469 1641.578125 809.988281 1600.519531 877.421875 Z M 1600.519531 877.421875 "/>
<path fill-rule="nonzero" fill="rgb(98.826599%, 99.21875%, 98.826599%)" fill-opacity="1" d="M 1745.558594 1027.390625 C 1824.488281 1031.320312 1884.25 1118.890625 1884.25 1118.890625 C 1884.25 1118.890625 1815.921875 1200.109375 1737.039062 1196.109375 C 1658.109375 1192.140625 1598.410156 1104.5 1598.410156 1104.5 C 1598.410156 1104.5 1666.558594 1023.308594 1745.558594 1027.390625 Z M 1745.558594 1027.390625 "/>
<path fill-rule="nonzero" fill="rgb(0%, 0%, 0%)" fill-opacity="1" d="M 1745.558594 1027.390625 C 1824.488281 1031.320312 1884.25 1118.890625 1884.25 1118.890625 C 1884.25 1118.890625 1819.171875 1196.25 1742.71875 1196.25 C 1740.839844 1196.25 1738.941406 1196.199219 1737.039062 1196.109375 C 1658.109375 1192.140625 1598.410156 1104.5 1598.410156 1104.5 C 1598.410156 1104.5 1663.261719 1027.238281 1739.761719 1027.238281 C 1741.691406 1027.238281 1743.621094 1027.289062 1745.558594 1027.390625 M 1745.558594 1027.390625 C 1743.621094 1027.289062 1741.691406 1027.238281 1739.761719 1027.238281 C 1663.261719 1027.238281 1598.410156 1104.5 1598.410156 1104.5 C 1598.410156 1104.5 1658.109375 1192.140625 1737.039062 1196.109375 C 1738.941406 1196.199219 1740.839844 1196.25 1742.71875 1196.25 C 1819.171875 1196.25 1884.25 1118.890625 1884.25 1118.890625 C 1884.25 1118.890625 1824.488281 1031.320312 1745.558594 1027.390625 Z M 1745.558594 1027.390625 "/>
<path fill-rule="nonzero" fill="rgb(98.826599%, 99.21875%, 98.826599%)" fill-opacity="1" d="M 1459.320312 711.359375 C 1484.769531 636.578125 1585.480469 603.25 1585.480469 603.25 C 1585.480469 603.25 1644.871094 691.148438 1619.351562 765.859375 C 1593.859375 840.621094 1493.109375 873.898438 1493.109375 873.898438 C 1493.109375 873.898438 1433.691406 786.121094 1459.320312 711.359375 Z M 1459.320312 711.359375 "/>
<path fill-rule="nonzero" fill="rgb(0%, 0%, 0%)" fill-opacity="1" d="M 1459.320312 711.359375 C 1484.769531 636.578125 1585.480469 603.25 1585.480469 603.25 C 1585.480469 603.25 1625.71875 662.808594 1625.71875 725.539062 C 1625.71875 739.019531 1623.859375 752.640625 1619.351562 765.859375 C 1593.859375 840.621094 1493.109375 873.898438 1493.109375 873.898438 C 1493.109375 873.898438 1452.910156 814.511719 1452.910156 751.820312 C 1452.910156 738.300781 1454.78125 724.621094 1459.320312 711.359375 M 1459.320312 711.359375 C 1454.78125 724.621094 1452.910156 738.300781 1452.910156 751.820312 C 1452.910156 814.511719 1493.109375 873.898438 1493.109375 873.898438 C 1493.109375 873.898438 1593.859375 840.621094 1619.351562 765.859375 C 1623.859375 752.640625 1625.71875 739.019531 1625.71875 725.539062 C 1625.71875 662.808594 1585.480469 603.25 1585.480469 603.25 C 1585.480469 603.25 1484.769531 636.578125 1459.320312 711.359375 Z M 1459.320312 711.359375 "/>
<path fill-rule="nonzero" fill="rgb(98.826599%, 99.21875%, 98.826599%)" fill-opacity="1" d="M 1513.230469 776.691406 C 1509.769531 776.691406 1484.890625 904.570312 1496.53125 1053.46875 C 1502.699219 1202.351562 1545.429688 1372.269531 1551.378906 1456.308594 C 1577.871094 1575.511719 1566.179688 1932.789062 1571.410156 1932.789062 C 1532.628906 1932.789062 1493.828125 1932.789062 1455.058594 1932.789062 C 1449.800781 1932.789062 1506.140625 1575.808594 1494.589844 1456.75 C 1499.179688 1372.648438 1470.621094 1202.640625 1476 1053.660156 C 1475.921875 904.640625 1509.769531 776.691406 1513.230469 776.691406 Z M 1513.230469 776.691406 "/>
<path fill-rule="nonzero" fill="rgb(0%, 0%, 0%)" fill-opacity="1" d="M 1513.230469 776.691406 C 1510.421875 776.691406 1493.449219 861.179688 1493.449219 972.78125 C 1493.449219 998.480469 1494.351562 1025.609375 1496.53125 1053.46875 C 1500.238281 1142.980469 1517.171875 1240.101562 1531.371094 1321.578125 C 1540.789062 1375.628906 1549.011719 1422.789062 1551.378906 1456.308594 C 1569.71875 1538.828125 1569.761719 1735.429688 1569.78125 1848.628906 C 1569.789062 1894.390625 1569.800781 1926.519531 1571.011719 1931.96875 C 1571.128906 1932.519531 1571.261719 1932.789062 1571.410156 1932.789062 L 1455.058594 1932.789062 C 1454.820312 1932.789062 1454.710938 1932.078125 1454.710938 1930.699219 C 1454.710938 1922.589844 1458.589844 1891.519531 1463.96875 1848.378906 C 1476.191406 1750.511719 1496.148438 1590.558594 1496.148438 1495.859375 C 1496.148438 1481.070312 1495.660156 1467.871094 1494.589844 1456.75 C 1496.640625 1419.179688 1492.070312 1364.480469 1486.878906 1302.148438 C 1480.441406 1224.960938 1473.03125 1136.089844 1476 1053.660156 C 1475.921875 904.640625 1509.769531 776.691406 1513.230469 776.691406 M 1513.230469 776.691406 C 1509.769531 776.691406 1475.921875 904.640625 1476 1053.660156 C 1473.03125 1136.089844 1480.441406 1224.960938 1486.878906 1302.148438 C 1492.070312 1364.480469 1496.640625 1419.179688 1494.589844 1456.75 C 1495.660156 1467.871094 1496.148438 1481.070312 1496.148438 1495.859375 C 1496.148438 1590.558594 1476.191406 1750.511719 1463.96875 1848.378906 C 1458.589844 1891.519531 1454.710938 1922.589844 1454.710938 1930.699219 C 1454.710938 1932.078125 1454.820312 1932.789062 1455.058594 1932.789062 L 1571.410156 1932.789062 C 1571.261719 1932.789062 1571.128906 1932.519531 1571.011719 1931.96875 C 1569.800781 1926.519531 1569.789062 1894.390625 1569.78125 1848.628906 C 1569.761719 1735.429688 1569.71875 1538.828125 1551.378906 1456.308594 C 1549.011719 1422.789062 1540.789062 1375.628906 1531.371094 1321.578125 C 1517.171875 1240.101562 1500.238281 1142.980469 1496.53125 1053.46875 C 1494.351562 1025.609375 1493.449219 998.480469 1493.449219 972.78125 C 1493.449219 861.179688 1510.421875 776.691406 1513.230469 776.691406 Z M 1513.230469 776.691406 "/>
<path fill-rule="nonzero" fill="rgb(98.826599%, 99.21875%, 98.826599%)" fill-opacity="1" d="M 1397.578125 1129.699219 C 1341.070312 1049.941406 1341.808594 968.949219 1353.851562 897.851562 C 1330.789062 965.589844 1323.839844 1034.691406 1363.511719 1121.710938 C 1378 1121.269531 1383.800781 1131.621094 1397.578125 1129.699219 Z M 1397.578125 1129.699219 "/>
<path fill-rule="nonzero" fill="rgb(0%, 0%, 0%)" fill-opacity="1" d="M 1397.578125 1129.699219 C 1341.070312 1049.941406 1341.808594 968.949219 1353.851562 897.851562 C 1330.789062 965.589844 1323.839844 1034.691406 1363.511719 1121.710938 C 1370.480469 1121.5 1375.441406 1123.789062 1380.25 1126 C 1384.761719 1128.089844 1389.140625 1130.109375 1394.929688 1129.929688 C 1395.78125 1129.898438 1396.671875 1129.828125 1397.578125 1129.699219 M 1397.578125 1129.699219 C 1396.671875 1129.828125 1395.78125 1129.898438 1394.929688 1129.929688 C 1389.140625 1130.109375 1384.761719 1128.089844 1380.25 1126 C 1375.441406 1123.789062 1370.480469 1121.5 1363.511719 1121.710938 C 1323.839844 1034.691406 1330.789062 965.589844 1353.851562 897.851562 C 1341.808594 968.949219 1341.070312 1049.941406 1397.578125 1129.699219 Z M 1397.578125 1129.699219 "/>
<path fill-rule="nonzero" fill="rgb(98.826599%, 99.21875%, 98.826599%)" fill-opacity="1" d="M 1496.210938 1576.390625 C 1480.308594 1479.308594 1421.03125 1404.640625 1360.039062 1363.109375 C 1427.359375 1394.710938 1490.179688 1459.339844 1524.320312 1550.390625 C 1512.671875 1559.890625 1508.359375 1568.550781 1496.210938 1576.390625 Z M 1496.210938 1576.390625 "/>
<path fill-rule="nonzero" fill="rgb(0%, 0%, 0%)" fill-opacity="1" d="M 1496.210938 1576.390625 C 1480.308594 1479.308594 1421.03125 1404.640625 1360.039062 1363.109375 C 1427.359375 1394.710938 1490.179688 1459.339844 1524.320312 1550.390625 C 1519.28125 1554.5 1515.609375 1558.460938 1512.078125 1562.261719 C 1508.820312 1565.769531 1505.691406 1569.148438 1501.699219 1572.398438 C 1500.039062 1573.75 1498.230469 1575.078125 1496.210938 1576.390625 M 1496.210938 1576.390625 C 1498.230469 1575.078125 1500.039062 1573.75 1501.699219 1572.398438 C 1505.691406 1569.148438 1508.820312 1565.769531 1512.078125 1562.261719 C 1515.609375 1558.460938 1519.28125 1554.5 1524.320312 1550.390625 C 1490.179688 1459.339844 1427.359375 1394.710938 1360.039062 1363.109375 C 1421.03125 1404.640625 1480.308594 1479.308594 1496.210938 1576.390625 Z M 1496.210938 1576.390625 "/>
<path fill-rule="nonzero" fill="rgb(98.826599%, 99.21875%, 98.826599%)" fill-opacity="1" d="M 1505.699219 1378.050781 C 1488.539062 1278.289062 1444.570312 1195.839844 1388.960938 1138.089844 C 1390.539062 1138.640625 1392.089844 1139.210938 1393.660156 1139.808594 C 1356.199219 1122.078125 1317.761719 1110.320312 1279.710938 1104.53125 C 1316.429688 1106.089844 1353.710938 1112.050781 1390.738281 1122.429688 C 1391.5 1122.269531 1392.238281 1122.050781 1393 1121.859375 C 1393.828125 1122.578125 1394.691406 1123.289062 1395.5 1124 C 1455.558594 1175.898438 1506.511719 1252.191406 1534.328125 1347.320312 C 1525.078125 1358.039062 1515.519531 1368.308594 1505.699219 1378.050781 Z M 1505.699219 1378.050781 "/>
<path fill-rule="nonzero" fill="rgb(0%, 0%, 0%)" fill-opacity="1" d="M 1505.699219 1378.050781 C 1488.539062 1278.289062 1444.570312 1195.839844 1388.960938 1138.089844 C 1390.53125 1138.640625 1392.089844 1139.210938 1393.660156 1139.808594 C 1356.199219 1122.078125 1317.761719 1110.320312 1279.710938 1104.53125 C 1316.429688 1106.089844 1353.710938 1112.050781 1390.738281 1122.429688 C 1391.210938 1122.328125 1391.671875 1122.210938 1392.128906 1122.089844 C 1392.429688 1122.011719 1392.691406 1121.941406 1393 1121.859375 C 1393.25 1122.078125 1393.578125 1122.359375 1393.839844 1122.570312 C 1394.121094 1122.820312 1394.390625 1123.050781 1394.671875 1123.289062 C 1394.949219 1123.53125 1395.21875 1123.761719 1395.5 1124 C 1455.558594 1175.898438 1506.511719 1252.191406 1534.328125 1347.320312 C 1525.078125 1358.039062 1515.519531 1368.308594 1505.699219 1378.050781 M 1505.699219 1378.050781 C 1515.519531 1368.308594 1525.078125 1358.039062 1534.328125 1347.320312 C 1506.511719 1252.191406 1455.558594 1175.898438 1395.5 1124 C 1395.21875 1123.761719 1394.949219 1123.53125 1394.671875 1123.289062 C 1394.390625 1123.050781 1394.121094 1122.820312 1393.839844 1122.570312 C 1393.578125 1122.359375 1393.25 1122.078125 1393 1121.859375 C 1392.691406 1121.941406 1392.429688 1122.011719 1392.128906 1122.089844 C 1391.671875 1122.210938 1391.210938 1122.328125 1390.738281 1122.429688 C 1353.710938 1112.050781 1316.429688 1106.089844 1279.710938 1104.53125 C 1317.761719 1110.320312 1356.199219 1122.078125 1393.660156 1139.808594 C 1392.089844 1139.210938 1390.53125 1138.640625 1388.960938 1138.089844 C 1444.570312 1195.839844 1488.539062 1278.289062 1505.699219 1378.050781 Z M 1505.699219 1378.050781 "/>
<path fill-rule="nonzero" fill="rgb(98.826599%, 99.21875%, 98.826599%)" fill-opacity="1" d="M 1623.859375 1313 C 1673.679688 1251.691406 1779.730469 1255.300781 1779.730469 1255.300781 C 1779.730469 1255.300781 1804.910156 1358.328125 1755.089844 1419.570312 C 1705.238281 1480.851562 1599.160156 1477.191406 1599.160156 1477.191406 C 1599.160156 1477.191406 1573.890625 1374.269531 1623.859375 1313 Z M 1623.859375 1313 "/>
<path fill-rule="nonzero" fill="rgb(0%, 0%, 0%)" fill-opacity="1" d="M 1623.859375 1313 C 1673.679688 1251.691406 1779.730469 1255.300781 1779.730469 1255.300781 C 1779.730469 1255.300781 1786.089844 1281.339844 1786.089844 1315.019531 C 1786.089844 1348.328125 1779.871094 1389.121094 1755.089844 1419.570312 C 1705.261719 1480.828125 1599.238281 1477.191406 1599.160156 1477.191406 C 1599.160156 1477.191406 1592.769531 1451.171875 1592.769531 1417.5 C 1592.769531 1384.21875 1599.019531 1343.460938 1623.859375 1313 M 1623.859375 1313 C 1599.019531 1343.460938 1592.769531 1384.21875 1592.769531 1417.5 C 1592.769531 1451.171875 1599.160156 1477.191406 1599.160156 1477.191406 C 1599.238281 1477.191406 1705.261719 1480.828125 1755.089844 1419.570312 C 1779.871094 1389.121094 1786.089844 1348.328125 1786.089844 1315.019531 C 1786.089844 1281.339844 1779.730469 1255.300781 1779.730469 1255.300781 C 1779.730469 1255.300781 1673.679688 1251.691406 1623.859375 1313 Z M 1623.859375 1313 "/>
<path fill-rule="nonzero" fill="rgb(98.826599%, 99.21875%, 98.826599%)" fill-opacity="1" d="M 1562.410156 1664.019531 C 1566.25 1536.269531 1618.671875 1456.660156 1674.160156 1396.628906 C 1611.640625 1443.839844 1561.628906 1506.339844 1539.089844 1626.769531 C 1551.449219 1638.75 1549.671875 1654.050781 1562.410156 1664.019531 Z M 1562.410156 1664.019531 "/>
<path fill-rule="nonzero" fill="rgb(0%, 0%, 0%)" fill-opacity="1" d="M 1562.410156 1664.019531 C 1566.25 1536.269531 1618.671875 1456.660156 1674.160156 1396.628906 C 1611.640625 1443.839844 1561.628906 1506.339844 1539.089844 1626.769531 C 1545.039062 1632.539062 1547.710938 1639.070312 1550.308594 1645.410156 C 1552.75 1651.390625 1555.128906 1657.179688 1560.101562 1662 C 1560.808594 1662.691406 1561.578125 1663.371094 1562.410156 1664.019531 M 1562.410156 1664.019531 C 1561.578125 1663.371094 1560.808594 1662.691406 1560.101562 1662 C 1555.128906 1657.179688 1552.75 1651.390625 1550.308594 1645.410156 C 1547.710938 1639.070312 1545.039062 1632.539062 1539.089844 1626.769531 C 1561.628906 1506.339844 1611.640625 1443.839844 1674.160156 1396.628906 C 1618.671875 1456.660156 1566.25 1536.269531 1562.410156 1664.019531 Z M 1562.410156 1664.019531 "/>
<path fill-rule="nonzero" fill="rgb(98.826599%, 99.21875%, 98.826599%)" fill-opacity="1" d="M 1501.421875 1159.050781 C 1541.148438 1110.46875 1613.820312 1100.929688 1683.988281 1100.359375 C 1610.71875 1092.980469 1545.179688 1096.789062 1489.570312 1134.738281 C 1498.011719 1144.601562 1491.988281 1149.859375 1501.421875 1159.050781 Z M 1501.421875 1159.050781 "/>
<path fill-rule="nonzero" fill="rgb(0%, 0%, 0%)" fill-opacity="1" d="M 1501.421875 1159.050781 C 1541.148438 1110.46875 1613.820312 1100.929688 1683.988281 1100.359375 C 1610.71875 1092.980469 1545.179688 1096.789062 1489.570312 1134.738281 C 1493.628906 1139.46875 1494.339844 1143.148438 1495.039062 1146.710938 C 1495.691406 1150.050781 1496.320312 1153.289062 1499.679688 1157.199219 C 1500.191406 1157.800781 1500.769531 1158.421875 1501.421875 1159.050781 M 1501.421875 1159.050781 C 1500.769531 1158.421875 1500.191406 1157.800781 1499.679688 1157.199219 C 1496.320312 1153.289062 1495.691406 1150.050781 1495.039062 1146.710938 C 1494.339844 1143.148438 1493.628906 1139.46875 1489.570312 1134.738281 C 1545.179688 1096.789062 1610.71875 1092.980469 1683.988281 1100.359375 C 1613.820312 1100.929688 1541.148438 1110.46875 1501.421875 1159.050781 Z M 1501.421875 1159.050781 "/>
<path fill-rule="nonzero" fill="rgb(98.826599%, 99.21875%, 98.826599%)" fill-opacity="1" d="M 1499.628906 1117.820312 C 1551.519531 1095.691406 1599.898438 1048.480469 1627.289062 981.121094 C 1607.949219 1060.789062 1558.679688 1118.078125 1504.730469 1144.808594 C 1503.691406 1135.429688 1501.960938 1126.429688 1499.628906 1117.820312 Z M 1499.628906 1117.820312 "/>
<path fill-rule="nonzero" fill="rgb(0%, 0%, 0%)" fill-opacity="1" d="M 1499.628906 1117.820312 C 1551.519531 1095.691406 1599.898438 1048.480469 1627.289062 981.121094 C 1607.949219 1060.789062 1558.679688 1118.078125 1504.730469 1144.808594 C 1503.691406 1135.429688 1501.960938 1126.429688 1499.628906 1117.820312 M 1499.628906 1117.820312 C 1501.960938 1126.429688 1503.691406 1135.429688 1504.730469 1144.808594 C 1558.679688 1118.078125 1607.949219 1060.789062 1627.289062 981.121094 C 1599.898438 1048.480469 1551.519531 1095.691406 1499.628906 1117.820312 Z M 1499.628906 1117.820312 "/>
</svg>
