<?xml version="1.0" ?>
<!-- Uploaded to: SVG Repo, www.svgrepo.com, Generator: SVG Repo Mixer Tools -->
<svg width="800px" height="800px" viewBox="0 -4.35 19.110785 19.110785" id="svg8" version="1.1" xmlns="http://www.w3.org/2000/svg" xmlns:cc="http://creativecommons.org/ns#" xmlns:dc="http://purl.org/dc/elements/1.1/" xmlns:inkscape="http://www.inkscape.org/namespaces/inkscape" xmlns:rdf="http://www.w3.org/1999/02/22-rdf-syntax-ns#" xmlns:sodipodi="http://sodipodi.sourceforge.net/DTD/sodipodi-0.dtd" xmlns:svg="http://www.w3.org/2000/svg">
<defs id="defs2">
<clipPath clipPathUnits="userSpaceOnUse" id="clipPath23">
<rect height="170.00711" id="rect25" style="opacity:1;fill:none;fill-opacity:1;stroke:#000000;stroke-width:1.5;stroke-linecap:round;stroke-linejoin:round;stroke-miterlimit:4;stroke-dasharray:none;stroke-dashoffset:0;stroke-opacity:0.97641512" transform="rotate(90)" width="263.84616" x="6.7847877" y="110.36194"/>
</clipPath>
</defs>
<g id="layer1" transform="translate(56.672512,-455.89551)">
<rect height="58.184261" id="rect8011" ry="1.1433572" style="opacity:1;fill:none;fill-opacity:1;stroke:none;stroke-width:1.10699999;stroke-linecap:round;stroke-linejoin:round;stroke-miterlimit:4;stroke-dasharray:none;stroke-dashoffset:0;stroke-opacity:1" width="150.11761" x="-377.22021" y="-198.90477"/>
</g>
<g id="g8681" transform="translate(56.672512,-455.89551)">
<rect height="58.184261" id="rect8677" ry="1.1433572" style="opacity:1;fill:none;fill-opacity:1;stroke:none;stroke-width:1.10699999;stroke-linecap:round;stroke-linejoin:round;stroke-miterlimit:4;stroke-dasharray:none;stroke-dashoffset:0;stroke-opacity:1" width="150.11761" x="-377.22021" y="-198.90477"/>
</g>
<g id="g9233" transform="translate(56.672512,-455.89551)">
<rect height="58.184261" id="rect9229" ry="1.1433572" style="opacity:1;fill:none;fill-opacity:1;stroke:none;stroke-width:1.10699999;stroke-linecap:round;stroke-linejoin:round;stroke-miterlimit:4;stroke-dasharray:none;stroke-dashoffset:0;stroke-opacity:1" width="150.11761" x="-377.22021" y="-198.90477"/>
<rect height="368.83194" id="rect9311" ry="1.1433572" style="opacity:1;fill:none;fill-opacity:1;stroke:none;stroke-width:1.10699999;stroke-linecap:round;stroke-linejoin:round;stroke-miterlimit:4;stroke-dasharray:none;stroke-dashoffset:0;stroke-opacity:1" width="313.2399" x="-594.38983" y="-161.63449"/>
<path d="m -47.639052,456.40463 a 3.2867457,3.7249786 0 0 0 -3.286768,3.72511 3.2867457,3.7249786 0 0 0 0.03842,0.54399 2.5380982,2.5198383 0 0 0 -0.933192,-0.1788 2.5380982,2.5198383 0 0 0 -2.538004,2.51964 2.5380982,2.5198383 0 0 0 0.135567,0.80356 h -0.95438 c -0.546236,0 -0.985987,0.43973 -0.985987,0.98598 0,0.54627 0.439751,0.98601 0.985987,0.98601 h 16.120566 c 0.546275,0 0.985999,-0.43974 0.985999,-0.98601 0,-0.54625 -0.439724,-0.98598 -0.985999,-0.98598 h -0.576722 a 2.5563577,2.483319 0 0 0 0.21154,-0.986 2.5563577,2.483319 0 0 0 -2.556365,-2.48349 2.5563577,2.483319 0 0 0 -0.353057,0.0264 1.8259698,2.2276829 0 0 0 -1.582503,-1.12212 1.8259698,2.2276829 0 0 0 -0.516024,0.0925 3.2867457,3.7249786 0 0 0 -3.2091,-2.94075 z" id="path8285" style="opacity:1;fill:#5fd35f;fill-opacity:1;stroke:#241f1c;stroke-width:1.01823258;stroke-linecap:round;stroke-linejoin:round;stroke-miterlimit:4;stroke-dasharray:none;stroke-dashoffset:0;stroke-opacity:1"/>
</g>
</svg>