<?xml version="1.0" encoding="iso-8859-1"?>
<!-- Uploaded to: SVG Repo, www.svgrepo.com, Generator: SVG Repo Mixer Tools -->
<svg height="800px" width="800px" version="1.1" id="Layer_1" xmlns="http://www.w3.org/2000/svg" xmlns:xlink="http://www.w3.org/1999/xlink" 
	 viewBox="0 0 511.844 511.844" xml:space="preserve">
<g>
	<path style="fill:#8AC054;" d="M127.961,170.612c0,35.333-28.648,63.98-63.98,63.98c-35.333,0-63.98-28.647-63.98-63.98
		s28.647-63.98,63.98-63.98C99.313,106.632,127.961,135.279,127.961,170.612z"/>
	<path style="fill:#8AC054;" d="M511.844,223.932c0,41.223-33.428,74.634-74.649,74.634s-74.634-33.411-74.634-74.634
		c0-41.222,33.412-74.642,74.634-74.642S511.844,182.71,511.844,223.932z"/>
	<path style="fill:#8AC054;" d="M399.816,362.546c0,29.46-23.868,53.327-53.327,53.327c-29.445,0-53.312-23.867-53.312-53.327
		c0-29.429,23.867-53.312,53.312-53.312C375.947,309.234,399.816,333.117,399.816,362.546z"/>
</g>
<path style="fill:#9ED36A;" d="M362.451,106.632c0,58.896-47.734,106.631-106.623,106.631s-106.64-47.735-106.64-106.631
	C149.188,47.743,196.939,0,255.827,0S362.451,47.743,362.451,106.632z"/>
<path style="fill:#8AC054;" d="M223.932,319.902c0,35.333-28.648,63.98-63.98,63.98c-35.333,0-63.98-28.647-63.98-63.98
	c0-35.332,28.647-63.98,63.98-63.98C195.284,255.922,223.932,284.57,223.932,319.902z"/>
<g>
	<path style="fill:#965353;" d="M255.828,95.971c-5.889,0-10.669,4.772-10.669,10.661l0,0v405.212h21.321V106.64v-0.008
		C266.48,100.743,261.717,95.971,255.828,95.971z"/>
	<path style="fill:#965353;" d="M437.194,213.263c-5.889,0-10.653,4.78-10.653,10.669v287.912h21.322V223.932
		C447.863,218.043,443.083,213.263,437.194,213.263z"/>
</g>
<g>
	<path style="fill:#7F4545;" d="M346.488,351.893c-5.889,0-10.653,4.78-10.653,10.653v149.298h21.321V362.546
		C357.156,356.673,352.393,351.893,346.488,351.893z"/>
	<path style="fill:#7F4545;" d="M159.951,309.234c-5.889,0-10.653,4.779-10.653,10.668v191.941h21.322V319.902
		C170.62,314.014,165.84,309.234,159.951,309.234z"/>
</g>
<path style="fill:#965353;" d="M63.981,159.951c-5.889,0-10.669,4.772-10.669,10.661v341.231h21.337V170.612
	C74.649,164.724,69.869,159.951,63.981,159.951z"/>
<path style="fill:#424953;" d="M490.522,490.507H10.669c-5.889,0-10.668,4.78-10.668,10.669s4.78,10.668,10.668,10.668h479.853
	c5.889,0,10.653-4.779,10.653-10.668S496.41,490.507,490.522,490.507z"/>
</svg>