<?xml version="1.0" encoding="iso-8859-1"?>
<!-- Uploaded to: SVG Repo, www.svgrepo.com, Generator: SVG Repo Mixer Tools -->
<svg height="800px" width="800px" version="1.1" id="Layer_1" xmlns="http://www.w3.org/2000/svg" xmlns:xlink="http://www.w3.org/1999/xlink" 
	 viewBox="0 0 511.849 511.849" xml:space="preserve">
<path style="fill:#9ED36A;" d="M380.653,121.437c2.467-54.273-32.475-104.555-85.599-118.043
	C244.6-9.415,193.709,15.039,169.654,59.728C106.955,72.209,53.846,120.991,37.57,189.111
	C15.264,282.496,70.607,376.826,161.204,399.82c33.693,8.559,64.387-2.047,94.721-13.387
	c110.482,49.75,199.689-5.343,219.012-86.287C493.196,223.741,451.443,146.601,380.653,121.437z"/>
<g style="opacity:0.2;">
	<path style="fill:#FFFFFF;" d="M380.653,121.437c2.467-54.273-32.475-104.555-85.599-118.043
		c-16.371-4.155-32.787-4.381-48.33-1.273c1.89,0.375,3.78,0.797,5.67,1.273c53.124,13.488,88.067,63.77,85.599,118.042
		c70.791,25.164,112.544,102.305,94.283,178.71c-12.777,53.547-56.139,95.768-116.011,103.828
		c81.522,10.341,143.019-38.27,158.671-103.828C493.196,223.741,451.443,146.601,380.653,121.437z"/>
</g>
<g>
	<path style="fill:#7F4545;" d="M261.798,329.498l-67.495-64.168c-4.264-4.062-11.028-3.891-15.074,0.382
		c-4.061,4.265-3.889,11.021,0.375,15.081l0,0l0,0l0,0l0,0l67.495,64.168L261.798,329.498z"/>
	<path style="fill:#7F4545;" d="M328.512,217.837c-3.405-4.811-10.06-5.951-14.854-2.546l-63.403,44.884l12.325,17.417
		l63.402-44.893C330.777,229.294,331.917,222.64,328.512,217.837z"/>
</g>
<path style="fill:#965353;" d="M255.831,170.586c-5.889,0-10.669,4.772-10.669,10.661v330.602h21.321V181.246
	C266.484,175.358,261.72,170.586,255.831,170.586z"/>
<path style="fill:#424953;" d="M287.821,490.527h-63.98c-5.905,0-10.669,4.765-10.669,10.653s4.764,10.668,10.669,10.668h63.98
	c5.889,0,10.668-4.779,10.668-10.668S293.71,490.527,287.821,490.527z"/>
<g>
	<path style="fill:#EC5564;" d="M127.855,149.256c-5.889,0-10.669,4.772-10.669,10.661s4.78,10.668,10.669,10.668
		c5.889,0,10.668-4.78,10.668-10.668C138.523,154.028,133.743,149.256,127.855,149.256z"/>
	<path style="fill:#EC5564;" d="M234.494,85.268c-5.889,0-10.653,4.772-10.653,10.661c0,5.896,4.764,10.668,10.653,10.668
		s10.668-4.772,10.668-10.668C245.162,90.04,240.383,85.268,234.494,85.268z"/>
	<path style="fill:#EC5564;" d="M383.964,255.895c5.889,0,10.668-4.771,10.668-10.661c0-5.889-4.779-10.661-10.668-10.661
		s-10.669,4.772-10.669,10.661C373.295,251.124,378.075,255.895,383.964,255.895z"/>
	<path style="fill:#EC5564;" d="M319.812,127.927c-5.889,0-10.669,4.772-10.669,10.661c0,5.896,4.78,10.668,10.669,10.668
		s10.668-4.772,10.668-10.668C330.48,132.699,325.7,127.927,319.812,127.927z"/>
	<path style="fill:#EC5564;" d="M170.513,319.891c-5.889,0-10.668,4.78-10.668,10.669s4.78,10.653,10.668,10.653
		s10.668-4.765,10.668-10.653S176.402,319.891,170.513,319.891z"/>
	<path style="fill:#EC5564;" d="M106.533,255.895c-5.904,0-10.668,4.78-10.668,10.668s4.764,10.669,10.668,10.669
		c5.873,0,10.653-4.78,10.653-10.669S112.406,255.895,106.533,255.895z"/>
	<path style="fill:#EC5564;" d="M191.835,192.001c-5.889,0-10.653,4.772-10.653,10.668c0,5.889,4.764,10.661,10.653,10.661
		s10.668-4.772,10.668-10.661C202.504,196.773,197.724,192.001,191.835,192.001z"/>
	<path style="fill:#EC5564;" d="M319.812,277.233c-5.889,0-10.669,4.779-10.669,10.668s4.78,10.653,10.669,10.653
		s10.668-4.765,10.668-10.653S325.7,277.233,319.812,277.233z"/>
	<path style="fill:#EC5564;" d="M383.964,319.891c-5.889,0-10.669,4.78-10.669,10.669s4.78,10.653,10.669,10.653
		s10.668-4.765,10.668-10.653S389.853,319.891,383.964,319.891z"/>
</g>
</svg>