<?xml version="1.0" encoding="iso-8859-1"?>
<!-- Uploaded to: SVG Repo, www.svgrepo.com, Generator: SVG Repo Mixer Tools -->
<svg height="800px" width="800px" version="1.1" id="Layer_1" xmlns="http://www.w3.org/2000/svg" xmlns:xlink="http://www.w3.org/1999/xlink" 
	 viewBox="0 0 511.851 511.851" xml:space="preserve">
<path style="fill:#79AA41;" d="M90.56,511.812c40.16,3.827,170.588-277.228,170.588-277.228
	C93.106,298.533,72.065,510.047,90.56,511.812z"/>
<path style="fill:#AAB2BC;" d="M392.639,313.247c14.214-2.733,30.757-66.276,22.759-108.17
	c-7.998-41.893-40.941-100.735-61.887-96.736c-20.947,3.999-30.772,66.292-21.9,112.731
	C340.484,267.527,378.425,315.966,392.639,313.247z"/>
<path style="fill:#CCD1D9;" d="M334.641,310.498c14.401,1.484,48.595-54.577,53.03-96.986
	c4.437-42.424-10.137-108.264-31.334-110.482c-21.212-2.218-48.594,54.577-53.515,101.61
	C297.917,251.673,320.255,308.999,334.641,310.498z"/>
<path style="fill:#E6E9ED;" d="M445.529,289.318c-12.824,6.686-65.276-32.818-85.021-70.619
	c-19.759-37.801-30.491-104.375-11.591-114.262c18.901-9.872,65.293,32.85,87.193,74.759
	C458.009,221.088,458.368,282.632,445.529,289.318z"/>
<g>
	<path style="fill:#8CC153;" d="M341.076,43.22c-17.401,3.327-28.819,20.119-25.492,37.52l9.981,52.296l63.012-12.043l-9.996-52.281
		C375.269,51.312,358.462,39.909,341.076,43.22z"/>
	<path style="fill:#8CC153;" d="M89.185,511.812c0-0.016,0-0.016,0-0.016c38.473-160.904,65.324-469.138,65.324-469.138
		C0.025,252.844,73.425,495.599,87.248,511.812H89.185z"/>
</g>
<path style="fill:#A0D468;" d="M453.073,10.668C453.073,4.779,448.294,0,442.405,0c-0.422,0-0.828,0.031-1.219,0.078h-0.016
	c-0.828,0.094-20.9,2.5-51.359,13.48c-50.438,18.182-89.879,45.611-114.09,65.402c-49.125,40.207-90.082,92.362-121.713,155.046
	c-38.941,77.195-63.762,170.651-73.79,277.806h21.416c9.856-103.25,33.724-193.176,70.979-267.324
	c30.116-59.951,68.994-109.795,115.589-148.174c41.425-34.13,81.443-52.703,107.732-62.293
	c28.554-10.403,47.532-12.746,47.704-12.762v-0.016C448.95,20.65,453.073,16.135,453.073,10.668z"/>
</svg>